<svg width="751" height="998" viewBox="0 0 751 998" fill="none" xmlns="http://www.w3.org/2000/svg">
<path d="M-168.568 -365.879L-197.16 -359.657L-206.1 -332.595L-215.106 -305.659L-242.183 -299.894L-269.261 -294.129L-278.518 -267.064L-287.775 -239.999L-315.105 -234.106L-342.53 -228.243L-351.219 -201.31L-359.877 -174.472L-387.207 -168.578L-414.632 -162.716L-423.668 -135.684L-432.578 -108.717L-460.002 -102.855L-487.332 -96.9611L-496.337 -70.0249L-505.373 -42.9937L-532.893 -37.1615L-560.413 -31.3294L-569.449 -4.29812L-578.485 22.7332L-605.91 28.596L-633.24 34.4895L-642.451 63.0405L-651.662 91.5914L-632.834 112.376L-614.101 133.13L-622.566 160.346L-631.031 187.561L-612.108 208.377L-593.185 229.192L-601.65 256.408L-610.085 283.528L-591.352 304.282L-572.524 325.067L-581.054 352.156L-589.519 379.372L-570.786 400.126L-551.958 420.911L-560.617 447.748L-569.306 474.681L-550.478 495.466L-531.745 516.22L-540.051 543.592L-548.356 570.964L-529.752 591.467L-511.149 611.969L-519.583 639.089L-528.143 666.274L-508.612 687.811C-497.935 699.662 -488.732 709.566 -488.127 709.971C-487.617 710.346 -474.769 707.976 -459.843 704.701L-432.544 698.903L-413.875 719.531C-403.647 730.816 -394.922 740.251 -394.446 740.404C-393.97 740.558 -381.377 738.001 -366.481 734.821L-339.277 728.992L-320.609 749.62C-310.38 760.906 -301.655 770.34 -301.18 770.494C-300.704 770.647 -288.11 768.09 -273.214 764.91L-246.011 759.081L-227.343 779.71C-217.114 790.995 -208.389 800.43 -207.913 800.583C-207.437 800.737 -194.844 798.18 -179.948 795L-152.744 789.171L-134.076 809.799C-123.847 821.085 -115.123 830.519 -114.647 830.673C-114.171 830.826 -101.577 828.269 -86.6816 825.089L-59.4779 819.26L-40.8098 839.888C-30.5808 851.174 -21.8561 860.609 -21.3803 860.762C-20.9044 860.916 -8.31107 858.359 6.58482 855.179L33.7885 849.35L52.5518 870.008C62.7501 881.389 71.791 890.821 72.4234 890.815C73.151 890.839 86.4075 888.181 101.997 884.805L130.432 878.742L139.373 851.68L148.378 824.744L175.456 818.98L202.534 813.215L211.791 786.15L221.048 759.085L248.473 753.222L275.802 747.329L284.491 720.395L293.15 693.558L320.479 687.664L347.904 681.801L356.94 654.77L365.85 627.803L393.275 621.94L420.605 616.047L429.61 589.111L438.646 562.079L466.166 556.247L493.686 550.415L502.722 523.384L511.758 496.353L539.183 490.49L566.512 484.596L575.723 456.045L584.934 427.494L566.202 406.74L547.374 385.956L555.839 358.74L564.304 331.524L545.381 310.709L526.458 289.894L534.923 262.678L543.357 235.558L524.625 214.804L505.797 194.019L514.326 166.929L522.791 139.714L504.059 118.96L485.231 98.1751L493.889 71.3372L502.578 44.4042L483.846 23.6502L465.018 2.86544L473.323 -24.5066L481.629 -51.8787L463.025 -72.381L444.421 -92.8833L452.856 -120.004L461.416 -147.188L441.885 -168.725C431.208 -180.576 422.004 -190.48 421.399 -190.885C420.89 -191.26 408.042 -188.89 393.115 -185.615L365.816 -179.817L347.148 -200.445C336.919 -211.731 328.194 -221.165 327.718 -221.319C327.243 -221.472 314.649 -218.915 299.753 -215.735L272.55 -209.906L253.882 -230.534C243.653 -241.82 234.928 -251.255 234.452 -251.408C233.976 -251.562 221.383 -249.005 206.487 -245.825L179.283 -239.996L160.615 -260.624C150.386 -271.91 141.661 -281.344 141.186 -281.498C140.71 -281.651 128.116 -279.094 113.221 -275.914L86.0168 -270.085L67.3487 -290.713C57.1197 -301.999 48.395 -311.434 47.9192 -311.587C47.4433 -311.741 34.85 -309.184 19.9541 -306.004L-7.2496 -300.175L-25.9177 -320.803C-36.1467 -332.088 -44.8714 -341.523 -45.3472 -341.676C-45.8231 -341.83 -58.4164 -339.273 -73.3123 -336.093L-100.516 -330.264L-119.184 -350.892C-129.413 -362.178 -138.328 -371.674 -138.93 -371.763C-139.596 -371.978 -152.978 -369.255 -168.568 -365.879ZM-122.644 -345.704L-105.382 -326.58L-113.58 -301.17L-121.778 -275.759L-146.961 -270.329C-160.847 -267.349 -172.526 -265.022 -173.002 -265.176C-173.382 -265.299 -181.594 -274.042 -191.12 -284.576L-208.382 -303.7L-200.185 -329.11L-192.017 -354.425L-167.119 -359.947C-153.424 -362.989 -141.745 -365.316 -141.079 -365.101C-140.477 -365.012 -132.17 -356.237 -122.644 -345.704ZM-29.3778 -315.614L-12.1157 -296.491L-20.3136 -271.08L-28.5114 -245.67L-53.695 -240.24C-67.5808 -237.259 -79.2593 -234.933 -79.7352 -235.086C-80.1158 -235.209 -88.3279 -243.953 -97.8538 -254.486L-115.116 -273.61L-106.918 -299.021L-98.751 -324.336L-73.8529 -329.858C-60.1574 -332.9 -48.4789 -335.226 -47.8127 -335.012C-47.211 -334.922 -38.9038 -326.148 -29.3778 -315.614ZM63.8886 -285.525L81.12 -266.306L72.9529 -240.991L64.755 -215.581L39.5714 -210.151C25.6856 -207.17 14.0071 -204.843 13.5313 -204.997C13.0554 -205.15 4.93857 -213.863 -4.58738 -224.397L-21.8495 -243.521L-13.6517 -268.931L-5.48453 -294.246L19.4136 -299.768C33.1091 -302.81 44.7875 -305.137 45.4537 -304.922C46.0555 -304.833 54.3627 -296.059 63.8886 -285.525ZM157.155 -255.436L174.386 -236.217L166.219 -210.901L158.021 -185.491L132.838 -180.061C118.952 -177.081 107.274 -174.754 106.798 -174.907C106.322 -175.061 98.205 -183.774 88.6791 -194.308L71.4169 -213.431L79.6148 -238.842L87.7819 -264.157L112.68 -269.679C126.376 -272.721 138.054 -275.048 138.72 -274.833C139.322 -274.744 147.629 -265.969 157.155 -255.436ZM250.421 -225.346L267.653 -206.127L259.486 -180.812L251.288 -155.402L226.104 -149.972C212.218 -146.991 200.54 -144.664 200.064 -144.818C199.588 -144.972 191.471 -153.685 181.945 -164.218L164.683 -183.342L172.881 -208.752L181.048 -234.067L205.946 -239.59C219.642 -242.631 231.32 -244.958 231.987 -244.743C232.588 -244.654 240.896 -235.88 250.421 -225.346ZM343.688 -195.257L360.919 -176.038L352.752 -150.723L344.554 -125.312L319.371 -119.882C305.485 -116.902 293.711 -114.606 293.331 -114.729C292.855 -114.882 284.738 -123.595 275.212 -134.129L257.95 -153.252L266.148 -178.663L274.345 -204.073L299.213 -209.5C312.908 -212.542 324.587 -214.869 325.253 -214.654C325.855 -214.565 334.162 -205.79 343.688 -195.257ZM436.954 -165.167L454.186 -145.948L446.019 -120.633L437.821 -95.2229L412.637 -89.7928C398.751 -86.8123 386.978 -84.5163 386.597 -84.6391C386.121 -84.7927 378.004 -93.5057 368.478 -104.039L351.216 -123.163L359.414 -148.573L367.612 -173.984L392.479 -179.411C406.175 -182.453 417.853 -184.779 418.519 -184.564C419.121 -184.475 427.428 -175.701 436.954 -165.167ZM-195.28 -279.824L-178.113 -260.73L-186.311 -235.32L-194.478 -210.005L-220.104 -204.507L-245.825 -199.041L-263.406 -218.477L-281.083 -237.945L-272.885 -263.355L-264.656 -288.861L-239.82 -294.193C-226.124 -297.235 -214.381 -299.436 -213.715 -299.221C-213.113 -299.132 -204.806 -290.357 -195.28 -279.824ZM-102.014 -249.734L-84.8469 -230.641L-93.0447 -205.231L-101.212 -179.916L-126.838 -174.418L-152.558 -168.951L-170.14 -188.388L-187.816 -207.856L-179.619 -233.266L-171.451 -258.581L-146.584 -264.008C-132.889 -267.05 -121.115 -269.346 -120.449 -269.131C-119.847 -269.042 -111.54 -260.268 -102.014 -249.734ZM-8.84259 -219.675L8.41953 -200.552L0.252397 -175.236L-7.94544 -149.826L-33.5711 -144.329L-59.292 -138.862L-76.8734 -158.299L-94.55 -177.766L-86.3521 -203.177L-78.185 -228.492L-53.3176 -233.919C-39.6221 -236.961 -27.9436 -239.287 -27.2775 -239.072C-26.6757 -238.983 -18.3685 -230.209 -8.84259 -219.675ZM84.4238 -189.586L101.686 -170.462L93.5188 -145.147L85.321 -119.737L59.6953 -114.239L33.9744 -108.772L16.393 -128.209L-1.28355 -147.677L6.91429 -173.087L15.0814 -198.402L39.9488 -203.829C53.6443 -206.871 65.3228 -209.198 65.989 -208.983C66.5907 -208.894 74.8979 -200.12 84.4238 -189.586ZM177.785 -159.466L194.952 -140.373L186.755 -114.962L178.587 -89.6472L152.962 -84.1497L127.241 -78.6828L109.659 -98.1198L91.9829 -117.587L100.181 -142.998L108.348 -168.313L133.215 -173.74C146.911 -176.782 158.684 -179.078 159.351 -178.863C159.952 -178.774 168.259 -169.999 177.785 -159.466ZM270.957 -129.407L288.219 -110.283L280.052 -84.9682L271.854 -59.5578L246.228 -54.0603L220.507 -48.5934L202.926 -68.0304L185.249 -87.498L193.447 -112.908L201.614 -138.224L226.482 -143.65C240.177 -146.692 251.856 -149.019 252.522 -148.804C253.124 -148.715 261.431 -139.941 270.957 -129.407ZM364.223 -99.3177L381.485 -80.1939L373.318 -54.8787L365.12 -29.4684L339.495 -23.9708L313.774 -18.504L296.192 -37.9409L278.516 -57.4086L286.683 -82.7238L294.881 -108.134L319.748 -113.561C333.444 -116.603 345.122 -118.93 345.788 -118.715C346.39 -118.626 354.697 -109.851 364.223 -99.3177ZM457.775 -69.1362L474.813 -50.2948L466.585 -24.7893L458.387 0.621025L432.761 6.11858L407.04 11.5854L389.459 -7.85151L371.782 -27.3192L379.949 -52.6343L388.147 -78.0447L413.015 -83.4716C426.71 -86.5136 438.579 -88.7789 439.34 -88.5332C440.102 -88.2876 448.439 -79.6083 457.775 -69.1362ZM-263.922 -209.713L-250.783 -195.071L-258.634 -169.759L-266.58 -144.478L-292.553 -138.882L-318.495 -133.381L-336.331 -153.005L-354.136 -172.725L-345.969 -198.04L-337.738 -223.229L-312.112 -228.727L-286.486 -234.224L-281.789 -229.242C-279.201 -226.515 -271.115 -217.707 -263.922 -209.713ZM487.718 70.9226L479.551 96.2378L453.579 101.834L427.637 107.334L409.801 87.7099L391.995 67.9905L400.322 42.8319L408.744 17.7041L434.495 12.142L460.247 6.58001L477.988 26.1735L495.76 45.6719L487.718 70.9226ZM-174.524 -183.918L-157.517 -164.982L-165.368 -139.67L-173.314 -114.388L-199.286 -108.792L-225.228 -103.292L-243.034 -123.011L-260.839 -142.731L-252.543 -167.794L-244.121 -192.922L-219.254 -198.349C-205.589 -201.296 -193.751 -203.466 -192.959 -203.315C-192.197 -203.07 -183.89 -194.295 -174.524 -183.918ZM-81.2576 -153.829L-64.2503 -134.892L-72.1012 -109.58L-80.0473 -84.2988L-106.02 -78.703L-131.962 -73.2024L-149.767 -92.9218L-167.573 -112.641L-159.277 -137.705L-150.855 -162.832L-125.987 -168.259C-112.323 -171.206 -100.484 -173.376 -99.7231 -173.131C-98.9618 -172.885 -90.6239 -164.206 -81.2576 -153.829ZM12.0089 -123.739L29.0162 -104.803L21.1653 -79.4908L13.2192 -54.2094L-12.7534 -48.6136L-38.6954 -43.113L-56.5316 -62.7372L-74.3371 -82.4566L-66.0103 -107.615L-57.5884 -132.743L-32.721 -138.17C-19.0562 -141.117 -7.21806 -143.287 -6.4567 -143.041C-5.69534 -142.796 2.64256 -134.116 12.0089 -123.739ZM105.275 -93.65L122.283 -74.7135L114.432 -49.4014L106.486 -24.1199L80.513 -18.5242L54.5711 -13.0235L36.7349 -32.6478L18.9294 -52.3672L27.2561 -77.5258L35.6781 -102.654L60.5455 -108.081C74.2103 -111.027 86.0484 -113.197 86.8097 -112.952C87.5711 -112.706 95.909 -104.027 105.275 -93.65ZM198.542 -63.5605L215.549 -44.624L207.698 -19.3119L199.752 5.96948L173.779 11.5653L147.837 17.0659L130.001 -2.55834L112.196 -22.2777L120.523 -47.4363L128.944 -72.5642L153.812 -77.9912C167.477 -80.938 179.315 -83.1081 180.076 -82.8624C180.838 -82.6168 189.175 -73.9376 198.542 -63.5605ZM291.808 -33.4711L308.815 -14.5346L300.965 10.7775L293.049 35.9637L267.077 41.5595L241.104 47.1553L223.268 27.5311L205.462 7.81169L213.789 -17.3469L222.211 -42.4748L247.078 -47.9018C260.743 -50.8485 272.612 -53.1138 273.373 -52.8682C274.104 -52.5274 282.442 -43.8481 291.808 -33.4711ZM385.075 -3.3817L402.082 15.5548L394.231 40.8669L386.316 66.0532L360.343 71.6489L334.37 77.2447L316.534 57.6205L298.729 37.9011L307.055 12.7425L315.477 -12.3854L340.345 -17.8123C354.01 -20.7591 365.878 -23.0244 366.64 -22.7788C367.37 -22.438 375.708 -13.7587 385.075 -3.3817ZM-340.62 -148.505L-323.008 -129.163L-331.144 -103.943L-339.281 -78.7232L-365.223 -73.2226L-391.069 -67.6912L-409.001 -87.3462L-426.837 -106.97L-418.7 -132.19L-410.564 -157.41L-384.812 -162.972C-370.706 -165.987 -358.901 -168.378 -358.646 -168.191C-358.392 -168.003 -350.21 -159.164 -340.62 -148.505ZM-247.353 -118.416L-229.741 -99.0738L-237.878 -73.8537L-246.014 -48.6337L-271.956 -43.1331L-297.803 -37.6018L-315.734 -57.2567L-333.57 -76.881L-325.434 -102.101L-317.202 -127.29L-291.546 -132.883C-277.439 -135.897 -265.665 -138.193 -265.38 -138.101C-265.125 -137.914 -256.944 -129.075 -247.353 -118.416ZM-154.087 -88.3261L-136.475 -68.9843L-144.611 -43.7643L-152.748 -18.5443L-178.69 -13.0437L-204.536 -7.51239L-222.468 -27.1673L-240.304 -46.7915L-232.168 -72.0115L-223.936 -97.2008L-198.28 -102.794C-184.173 -105.808 -172.399 -108.104 -172.114 -108.012C-171.859 -107.824 -163.677 -98.9856 -154.087 -88.3261ZM-60.8206 -58.2367L-43.2085 -38.8949L-51.3449 -13.6749L-59.4813 11.5451L-85.4232 17.0457L-111.396 22.6415L-129.201 2.92211L-147.038 -16.7021L-138.901 -41.9221L-130.67 -67.1114L-105.013 -72.7041C-90.9062 -75.7184 -79.1326 -78.0144 -78.8471 -77.9223C-78.5923 -77.735 -70.5061 -68.9268 -60.8206 -58.2367ZM32.4459 -28.1472L50.058 -8.80548L41.9215 16.4145L33.7851 41.6345L7.8432 47.1351L-18.1294 52.7309L-35.9349 33.0115L-53.7711 13.3873L-45.6347 -11.8327L-37.4983 -37.0527L-11.7774 -42.5195C2.3602 -45.629 14.1338 -47.925 14.3886 -47.7377C14.6741 -47.6456 22.7603 -38.8374 32.4459 -28.1472ZM125.712 1.94218L143.324 21.2839L135.188 46.504L127.052 71.724L101.11 77.2246L75.137 82.8204L57.3315 63.101L39.4953 43.4767L47.6317 18.2567L55.7682 -6.96327L81.489 -12.4301C95.6266 -15.5396 107.4 -17.8356 107.655 -17.6483C107.941 -17.5562 116.027 -8.74799 125.712 1.94218ZM218.979 32.0316L236.496 51.3427L228.454 76.5934L220.318 101.813L194.376 107.314L168.403 112.91L150.598 93.1904L132.762 73.5662L140.898 48.3462L149.035 23.1262L174.755 17.6593C188.893 14.5498 200.667 12.2539 200.921 12.4411C201.207 12.5333 209.388 21.3721 218.979 32.0316ZM312.245 62.121L329.762 81.4321L321.721 106.683L313.584 131.903L287.642 137.403L261.605 142.873L243.864 123.28L226.028 103.656L234.165 78.4356L242.301 53.2156L268.053 47.6536C282.159 44.6393 293.933 42.3433 294.219 42.4354C294.473 42.6227 302.655 51.4616 312.245 62.121ZM405.512 92.2104L423.029 111.522L414.987 136.772L406.851 161.992L380.909 167.493L354.872 172.963L337.131 153.369L319.295 133.745L327.431 108.525L335.567 83.305L361.319 77.743C375.426 74.7287 387.2 72.4327 387.485 72.5248C387.74 72.7121 395.921 81.551 405.512 92.2104ZM498.873 122.331L516.39 141.642L508.254 166.862L500.117 192.082L474.175 197.582L448.138 203.052L430.397 183.459L412.561 163.834L420.697 138.614L428.834 113.394L454.585 107.832C468.692 104.818 480.466 102.522 480.847 102.645C481.197 102.863 489.378 111.702 498.873 122.331ZM-413.449 -83.0022L-395.708 -63.4087L-403.875 -38.0935L-412.107 -12.9042L-437.954 -7.37292L-463.865 -1.96747L-481.511 -21.5303L-499.092 -40.9672L-491.211 -66.3745L-483.264 -91.6559L-457.608 -97.2486C-443.406 -100.232 -431.761 -102.78 -431.571 -102.719C-431.381 -102.657 -423.325 -93.7538 -413.449 -83.0022ZM-320.278 -52.9435L-302.472 -33.2241L-310.609 -8.00411L-318.841 17.1852L-344.782 22.6858L-370.598 28.122L-388.244 8.55914L-405.826 -10.8778L-397.975 -36.1899L-390.029 -61.4713L-364.372 -67.0641C-350.14 -70.1428 -338.526 -72.5954 -338.335 -72.534C-338.209 -72.5984 -330.059 -63.6644 -320.278 -52.9435ZM-227.012 -22.8541L-209.206 -3.13469L-217.342 22.0853L-225.574 47.2746L-251.516 52.7752L-277.332 58.2114L-294.978 38.6486L-312.559 19.2116L-304.708 -6.10049L-296.762 -31.3819L-271.106 -36.9746C-256.873 -40.0534 -245.259 -42.5059 -245.069 -42.4445C-244.943 -42.509 -236.792 -33.5749 -227.012 -22.8541ZM-133.745 7.23535L-115.94 26.9547L-124.076 52.1747L-132.308 77.364L-158.25 82.8647L-184.066 88.3008L-201.711 68.738L-219.293 49.301L-211.442 23.9889L-203.496 -1.29248L-177.839 -6.8852C-163.607 -9.96396 -151.993 -12.4165 -151.802 -12.3551C-151.677 -12.4196 -143.526 -3.48552 -133.745 7.23535ZM-40.4787 37.3248L-22.6732 57.0442L-31 82.2028L-39.4219 107.331L-65.0476 112.828L-90.7992 118.39L-108.35 98.8581L-126.026 79.3905L-118.176 54.0784L-110.229 28.7969L-84.573 23.2042C-70.3403 20.1255 -58.7263 17.6729 -58.5359 17.7343C-58.4101 17.6698 -50.2595 26.6039 -40.4787 37.3248ZM52.7877 67.4142L70.5932 87.1336L62.2665 112.292L53.8445 137.42L28.2188 142.918L2.46723 148.48L-15.0835 128.948L-32.76 109.48L-24.9091 84.1678L-16.963 58.8864L8.69339 53.2936C22.9261 50.2149 34.5401 47.7623 34.7305 47.8237C34.8564 47.7593 43.007 56.6933 52.7877 67.4142ZM146.054 97.5036L163.86 117.223L155.533 142.382L147.111 167.51L121.485 173.007L95.7337 178.569L78.183 159.037L60.5064 139.569L68.3573 114.257L76.3034 88.9758L101.96 83.3831C116.193 80.3043 127.807 77.8518 127.997 77.9132C128.123 77.8487 136.273 86.7828 146.054 97.5036ZM239.321 127.593L257.126 147.312L248.799 172.471L240.377 197.599L214.752 203.096L189 208.658L171.228 189.16L153.392 169.536L161.433 144.285L169.57 119.065L195.321 113.503C209.459 110.394 221.073 107.941 221.263 108.003C221.389 107.938 229.54 116.872 239.321 127.593ZM332.587 157.682L350.393 177.402L342.066 202.56L333.644 227.688L308.018 233.186L282.267 238.748L264.495 219.25L246.659 199.625L254.7 174.375L262.836 149.155L288.588 143.593C302.725 140.483 314.339 138.031 314.53 138.092C314.656 138.028 322.806 146.962 332.587 157.682ZM425.853 187.772L443.659 207.491L435.332 232.65L426.91 257.778L401.285 263.275L375.533 268.837L357.761 249.339L339.925 229.715L347.966 204.464L356.103 179.244L381.854 173.682C395.992 170.573 407.606 168.12 407.796 168.181C407.922 168.117 416.073 177.051 425.853 187.772ZM519.31 217.923L536.956 237.486L528.629 262.644L520.177 287.867L494.551 293.365L468.799 298.927L450.932 279.398L433.191 259.804L441.233 234.553L449.4 209.238L475.121 203.771C489.258 200.662 500.967 198.24 501.189 198.206C501.379 198.268 509.56 207.107 519.31 217.923ZM-485.287 -16.339L-468.409 2.34576L-476.735 27.5044L-485.188 52.7274L-510.025 58.0592C-523.72 61.1012 -535.558 63.2713 -536.32 63.0256C-537.081 62.78 -545.388 54.0056 -554.755 43.6286L-571.762 24.6921L-563.88 -0.71521L-555.934 -25.9966L-530.309 -31.4942C-516.106 -34.4778 -504.078 -36.5865 -503.409 -36.0553C-502.74 -35.5242 -494.653 -26.716 -485.287 -16.339ZM-392.788 12.8724L-375.142 32.4352L-383.469 57.5938L-391.922 82.8168L-416.758 88.1486C-430.454 91.1906 -442.292 93.3607 -443.053 93.1151C-443.815 92.8694 -452.122 84.095 -461.488 73.718L-478.496 54.7815L-470.645 29.4694L-462.699 4.18797L-437.073 -1.30958C-422.84 -4.38834 -411.131 -6.81019 -410.941 -6.74879C-410.75 -6.68738 -402.569 2.15151 -392.788 12.8724ZM-299.522 42.9618L-281.876 62.5246L-290.203 87.6832L-298.655 112.906L-323.492 118.238C-337.187 121.28 -349.026 123.45 -349.787 123.204C-350.548 122.959 -358.855 114.184 -368.222 103.807L-385.229 84.8709L-377.378 59.5588L-369.432 34.2774L-343.806 28.7798C-329.574 25.7011 -317.864 23.2792 -317.674 23.3406C-317.484 23.402 -309.302 32.2409 -299.522 42.9618ZM-206.255 73.0512L-188.609 92.614L-196.936 117.773L-205.389 142.996L-230.226 148.327C-243.921 151.369 -255.759 153.54 -256.52 153.294C-257.282 153.048 -265.589 144.274 -274.955 133.897L-291.963 114.96L-284.112 89.6482L-276.166 64.3668L-250.54 58.8693C-236.307 55.7905 -224.598 53.3687 -224.408 53.4301C-224.217 53.4915 -216.036 62.3304 -206.255 73.0512ZM-112.989 103.141L-95.343 122.703L-103.67 147.862L-112.092 172.99L-136.959 178.417C-150.624 181.364 -162.493 183.629 -163.254 183.383C-164.015 183.138 -172.323 174.363 -181.689 163.986L-198.696 145.05L-190.845 119.738L-182.899 94.4562L-157.274 88.9587C-143.041 85.8799 -131.332 83.4581 -131.141 83.5195C-130.951 83.5809 -122.77 92.4198 -112.989 103.141ZM-19.7224 133.23L-2.07656 152.793L-10.4033 177.951L-18.8253 203.079L-43.6927 208.506C-57.3575 211.453 -69.2263 213.718 -69.9876 213.473C-70.749 213.227 -79.0562 204.453 -88.4225 194.076L-105.43 175.139L-97.5789 149.827L-89.6328 124.546L-64.0071 119.048C-49.7743 115.969 -38.0652 113.548 -37.8748 113.609C-37.6845 113.67 -29.5032 122.509 -19.7224 133.23ZM73.544 163.319L91.1899 182.882L82.8631 208.041L74.4412 233.169L49.5738 238.596C35.909 241.543 24.0402 243.808 23.2788 243.562C22.5174 243.317 14.2102 234.542 4.84394 224.165L-12.1634 205.229L-4.31246 179.917L3.63363 154.635L29.2593 149.138C43.4921 146.059 55.2013 143.637 55.3916 143.698C55.5819 143.76 63.7633 152.599 73.544 163.319ZM166.81 193.409L184.456 212.972L176.13 238.13L167.708 263.258L142.84 268.685C129.175 271.632 117.307 273.897 116.545 273.652C115.784 273.406 107.477 264.632 98.1104 254.255L81.1031 235.318L88.954 210.006L96.9001 184.725L122.526 179.227C136.759 176.148 148.468 173.726 148.658 173.788C148.848 173.849 157.03 182.688 166.81 193.409ZM260.077 223.498L277.723 243.061L269.396 268.22L260.974 293.348L236.107 298.775C222.442 301.721 210.573 303.987 209.812 303.741C209.05 303.495 200.712 294.816 191.377 284.344L174.339 265.503L182.22 240.095L190.166 214.814L215.792 209.316C230.025 206.238 241.734 203.816 241.924 203.877C242.115 203.939 250.296 212.777 260.077 223.498ZM353.343 253.588L370.989 273.151L362.662 298.309L354.24 323.437L329.373 328.864C315.708 331.811 303.839 334.076 303.078 333.83C302.317 333.585 293.979 324.906 284.643 314.433L267.605 295.592L275.487 270.185L283.433 244.903L309.059 239.406C323.291 236.327 335.001 233.905 335.191 233.967C335.381 234.028 343.563 242.867 353.343 253.588ZM446.61 283.677L464.256 303.24L455.929 328.399L447.507 353.526L422.639 358.953C408.975 361.9 397.106 364.166 396.345 363.92C395.583 363.674 387.245 354.995 377.91 344.523L360.872 325.681L368.753 300.274L376.699 274.993L402.325 269.495C416.558 266.416 428.267 263.995 428.457 264.056C428.648 264.117 436.829 272.956 446.61 283.677ZM540.644 314.645L557.553 333.234L549.226 358.393L540.773 383.616L515.906 389.043C502.241 391.99 490.372 394.255 489.611 394.009C488.85 393.764 480.512 385.084 471.176 374.612L454.138 355.771L462.02 330.364L469.966 305.082L495.622 299.489C510.171 296.408 521.853 294.397 522.586 295.054C523.256 295.585 531.437 304.424 540.644 314.645ZM-558.724 48.4422L-541.493 67.6612L-549.66 92.9764L-557.827 118.292L-583.232 123.755C-597.148 126.831 -609.146 128.845 -609.941 128.378C-610.61 127.847 -618.727 119.134 -627.839 108.944L-644.462 90.4465L-636.265 65.0362L-628.067 39.6259L-603.199 34.1989C-589.504 31.157 -577.825 28.8303 -577.159 29.0452C-576.557 29.1342 -568.25 37.9087 -558.724 48.4422ZM-465.458 78.5317L-448.226 97.7506L-456.394 123.066L-464.561 148.381L-489.775 153.906C-503.661 156.887 -515.339 159.213 -515.72 159.091C-516.196 158.937 -524.377 150.098 -533.968 139.439L-551.549 120.002L-543.474 94.9721L-535.399 69.9424L-510.185 64.4172C-496.363 61.3108 -484.59 59.0149 -483.893 59.1346C-483.291 59.2237 -474.984 67.9981 -465.458 78.5317ZM-372.191 108.621L-354.96 127.84L-363.127 153.155L-371.294 178.47L-396.509 183.996C-410.394 186.976 -422.073 189.303 -422.454 189.18C-422.929 189.026 -431.111 180.188 -440.701 169.528L-458.283 150.091L-450.208 125.062L-442.133 100.032L-416.918 94.5067C-403.097 91.4003 -391.323 89.1043 -390.626 89.224C-390.025 89.3131 -381.717 98.0875 -372.191 108.621ZM-278.925 138.711L-261.694 157.929L-269.861 183.245L-278.028 208.56L-303.242 214.085C-317.128 217.066 -328.807 219.392 -329.187 219.269C-329.663 219.116 -337.844 210.277 -347.435 199.618L-365.016 180.181L-356.941 155.151L-348.866 130.121L-323.652 124.596C-309.83 121.49 -298.057 119.194 -297.36 119.313C-296.758 119.403 -288.451 128.177 -278.925 138.711ZM-185.659 168.8L-168.427 188.019L-176.594 213.334L-184.761 238.649L-209.976 244.174C-223.862 247.155 -235.54 249.482 -235.921 249.359C-236.397 249.205 -244.578 240.366 -254.168 229.707L-271.75 210.27L-263.675 185.24L-255.6 160.211L-230.385 154.686C-216.564 151.579 -204.79 149.283 -204.093 149.403C-203.492 149.492 -195.185 158.266 -185.659 168.8ZM-92.3922 198.889L-75.1608 218.108L-83.3279 243.424L-91.495 268.739L-116.709 274.264C-130.595 277.244 -142.369 279.54 -142.75 279.418C-143.13 279.295 -151.342 270.551 -160.868 260.017L-178.1 240.798L-169.932 215.483L-161.765 190.168L-136.867 184.646C-123.202 181.699 -111.493 179.277 -110.827 179.492C-110.225 179.581 -101.918 188.356 -92.3922 198.889ZM0.874234 228.979L18.1057 248.198L9.93852 273.513L1.77139 298.828L-23.4429 304.353C-37.3288 307.334 -49.1024 309.63 -49.4831 309.507C-49.8638 309.384 -58.0758 300.64 -67.6017 290.107L-84.8331 270.888L-76.666 245.573L-68.4989 220.258L-43.6008 214.735C-29.936 211.789 -18.2268 209.367 -17.5606 209.582C-16.9589 209.671 -8.65171 218.445 0.874234 228.979ZM94.1407 259.068L111.372 278.287L103.205 303.602L95.0378 328.918L69.8235 334.443C55.9377 337.423 44.164 339.719 43.7833 339.596C43.4027 339.474 35.1906 330.73 25.6647 320.196L8.43328 300.977L16.6004 275.662L24.7675 250.347L49.6657 244.825C63.3304 241.878 75.0396 239.456 75.7058 239.671C76.3075 239.76 84.6147 248.535 94.1407 259.068ZM187.441 289.379L205.022 308.816L196.947 333.845L188.872 358.875L163.247 364.373C149.235 367.418 137.43 369.809 136.955 369.655C136.574 369.532 128.457 360.819 118.931 350.286L101.7 331.067L109.867 305.752L118.034 280.436L142.932 274.914C156.597 271.968 168.306 269.546 168.877 269.73C169.479 269.819 177.85 278.719 187.441 289.379ZM280.707 319.468L298.289 338.905L290.214 363.935L282.139 388.964L256.513 394.462C242.501 397.507 230.697 399.898 230.221 399.745C229.84 399.622 221.723 390.909 212.198 380.375L194.966 361.156L203.133 335.841L211.3 310.526L236.199 305.004C249.863 302.057 261.572 299.635 262.143 299.819C262.745 299.908 271.117 308.809 280.707 319.468ZM373.974 349.558L391.555 368.994L383.48 394.024L375.405 419.054L349.779 424.551C335.768 427.596 323.963 429.988 323.487 429.834C323.107 429.711 314.99 420.998 305.464 410.465L288.233 391.246L296.4 365.93L304.567 340.615L329.465 335.093C343.13 332.146 354.839 329.725 355.41 329.909C356.012 329.998 364.383 338.898 373.974 349.558ZM467.24 379.647L484.822 399.084L476.747 424.114L468.671 449.143L443.046 454.641C429.034 457.686 417.23 460.077 416.754 459.923C416.373 459.801 408.256 451.088 398.73 440.554L381.499 421.335L389.666 396.02L397.833 370.705L422.731 365.183C436.396 362.236 448.105 359.814 448.676 359.998C449.278 360.087 457.65 368.988 467.24 379.647ZM560.568 409.546L577.735 428.639L569.537 454.049L561.339 479.46L537.04 484.755C523.691 487.699 512.013 490.025 511.159 490.065C510.241 489.979 501.682 481.334 492.187 470.705L474.765 451.424L482.933 426.109L491.1 400.794L515.998 395.272C529.663 392.325 541.467 389.934 542.133 390.149C542.735 390.238 551.042 399.012 560.568 409.546ZM-537.904 144.473L-520.866 163.315L-528.747 188.722L-536.693 214.003L-561.782 219.464C-575.637 222.35 -587.601 224.584 -588.362 224.338C-589.124 224.093 -597.557 215.383 -607.083 204.849L-624.28 185.851L-615.953 160.693L-607.501 135.47L-582.633 130.043C-568.969 127.096 -557.1 124.831 -556.338 125.076C-555.577 125.322 -547.239 134.001 -537.904 144.473ZM-444.637 174.563L-427.599 193.404L-435.481 218.811L-443.427 244.093L-469.369 249.593L-495.341 255.189L-513.147 235.47L-530.983 215.846L-522.656 190.687L-514.234 165.559L-489.367 160.132C-475.702 157.185 -463.833 154.92 -463.072 155.166C-462.311 155.411 -453.973 164.091 -444.637 174.563ZM-351.371 204.652L-334.333 223.494L-342.214 248.901L-350.16 274.182L-376.102 279.683L-402.075 285.279L-419.88 265.559L-437.717 245.935L-429.39 220.776L-420.968 195.649L-396.101 190.222C-382.436 187.275 -370.567 185.01 -369.806 185.255C-369.044 185.501 -360.706 194.18 -351.371 204.652ZM-258.104 234.742L-241.066 253.583L-248.948 278.99L-256.894 304.272L-282.836 309.772L-308.809 315.368L-326.614 295.649L-344.45 276.025L-336.123 250.866L-327.702 225.738L-302.834 220.311C-289.169 217.364 -277.301 215.099 -276.539 215.345C-275.778 215.59 -267.44 224.27 -258.104 234.742ZM-164.838 264.831L-147.831 283.768L-155.681 309.08L-163.628 334.361L-189.569 339.862L-215.542 345.458L-233.348 325.738L-251.184 306.114L-242.857 280.955L-234.435 255.827L-209.568 250.4C-195.903 247.454 -184.034 245.188 -183.273 245.434C-182.511 245.68 -174.204 254.454 -164.838 264.831ZM-71.5714 294.921L-54.5641 313.857L-62.415 339.169L-70.3611 364.451L-96.3031 369.951L-122.276 375.547L-140.081 355.828L-157.917 336.203L-149.591 311.045L-141.169 285.917L-116.301 280.49C-102.636 277.543 -90.7677 275.278 -90.0063 275.523C-89.2449 275.769 -80.9377 284.544 -71.5714 294.921ZM21.695 325.01L38.7023 343.946L30.8514 369.259L22.9053 394.54L-3.03662 400.041L-29.0092 405.636L-46.8147 385.917L-64.6509 366.293L-56.3242 341.134L-47.9022 316.006L-23.0348 310.579C-9.37004 307.633 2.49877 305.367 3.26013 305.613C4.02148 305.859 12.3287 314.633 21.695 325.01ZM114.961 355.099L131.969 374.036L124.118 399.348L116.172 424.629L90.2298 430.13L64.2572 435.726L46.4517 416.006L28.6155 396.382L36.9423 371.224L45.3642 346.096L70.2316 340.669C83.8964 337.722 95.7652 335.457 96.5266 335.702C97.2879 335.948 105.595 344.722 114.961 355.099ZM208.228 385.189L225.235 404.125L217.384 429.437L209.438 454.719L183.496 460.219L157.524 465.815L139.718 446.096L121.882 426.472L130.209 401.313L138.661 376.09L163.498 370.758C177.194 367.716 189.032 365.546 189.793 365.792C190.554 366.037 198.862 374.812 208.228 385.189ZM301.494 415.278L318.502 434.215L310.651 459.527L302.705 484.808L276.763 490.309L250.79 495.905L232.985 476.185L215.148 456.561L223.475 431.402L231.928 406.179L256.764 400.848C270.46 397.806 282.298 395.636 283.059 395.881C283.821 396.127 292.128 404.901 301.494 415.278ZM394.761 445.368L411.768 464.304L403.917 489.616L395.971 514.898L370.029 520.398L344.056 525.994L326.251 506.275L308.415 486.65L316.742 461.492L325.194 436.269L350.031 430.937C363.726 427.895 375.564 425.725 376.326 425.971C377.087 426.216 385.394 434.991 394.761 445.368ZM488.027 475.457L505.034 494.394L497.153 519.801L489.207 545.082L464.149 550.448C450.263 553.428 438.33 555.568 437.569 555.322C436.807 555.077 428.405 546.271 418.848 535.833L401.681 516.74L410.008 491.581L418.461 466.358L443.297 461.026C456.993 457.985 468.831 455.814 469.592 456.06C470.354 456.306 478.661 465.08 488.027 475.457ZM-517.436 239.97L-499.919 259.281L-507.96 284.532L-516.127 309.847L-542.069 315.348L-568.137 320.913L-585.973 301.289L-603.684 281.6L-595.357 256.442L-586.904 231.218L-561.469 225.66C-547.426 222.519 -535.843 220.162 -535.588 220.349C-535.208 220.472 -527.121 229.28 -517.436 239.97ZM-424.169 270.06L-406.653 289.371L-414.694 314.622L-422.83 339.842L-448.803 345.437L-474.745 350.938L-492.581 331.314L-510.386 311.594L-502.06 286.436L-493.638 261.308L-468.202 255.749C-454.16 252.609 -442.577 250.251 -442.322 250.439C-442.036 250.531 -433.855 259.37 -424.169 270.06ZM-330.903 300.149L-313.386 319.46L-321.427 344.711L-329.564 369.931L-355.536 375.527L-381.478 381.027L-399.315 361.403L-417.12 341.684L-408.793 316.525L-400.371 291.397L-374.936 285.838C-360.894 282.698 -349.31 280.341 -349.055 280.528C-348.77 280.62 -340.589 289.459 -330.903 300.149ZM-237.637 330.239L-220.12 349.55L-228.161 374.8L-236.297 400.02L-262.27 405.616L-288.212 411.117L-306.048 391.493L-323.854 371.773L-315.527 346.615L-307.105 321.487L-281.67 315.928C-267.627 312.788 -256.044 310.43 -255.789 310.618C-255.503 310.71 -247.322 319.549 -237.637 330.239ZM-144.975 359.923L-127.234 379.516L-135.085 404.828L-143.031 430.11L-169.004 435.706L-194.945 441.206L-212.782 421.582L-230.587 401.863L-222.26 376.704L-213.838 351.576L-188.403 346.017C-174.361 342.877 -162.937 340.363 -162.811 340.299C-162.685 340.234 -154.725 349.107 -144.975 359.923ZM-51.7085 390.012L-33.9675 409.606L-41.8184 434.918L-49.7645 460.199L-75.7371 465.795L-101.679 471.296L-119.515 451.671L-137.321 431.952L-128.994 406.793L-120.572 381.666L-95.1366 376.107C-81.0942 372.966 -69.6706 370.453 -69.5447 370.388C-69.4188 370.324 -61.4585 379.196 -51.7085 390.012ZM41.5579 420.102L59.299 439.695L51.448 465.007L43.502 490.289L17.5293 495.885L-8.4126 501.385L-26.2488 481.761L-44.0543 462.042L-35.7275 436.883L-27.3056 411.755L-1.87022 406.196C12.1722 403.056 23.5959 400.542 23.7217 400.477C23.8476 400.413 31.8079 409.286 41.5579 420.102ZM134.824 450.191L152.565 469.785L144.714 495.097L136.768 520.378L110.796 525.974L84.8538 531.475L67.0176 511.85L49.2121 492.131L57.3486 466.911L65.5802 441.722L91.2059 436.224C105.343 433.115 116.862 430.631 116.988 430.567C117.114 430.502 125.074 439.375 134.824 450.191ZM228.091 480.281L245.832 499.874L237.981 525.186L230.035 550.468L204.062 556.063L178.12 561.564L160.284 541.94L142.479 522.22L150.615 497L158.847 471.811L184.472 466.314C198.61 463.204 210.129 460.721 210.255 460.656C210.38 460.592 218.341 469.464 228.091 480.281ZM321.357 510.37L339.098 529.963L331.247 555.276L323.301 580.557L297.329 586.153L271.387 591.653L253.55 572.029L235.745 552.31L243.881 527.09L252.113 501.9L277.739 496.403C291.876 493.293 303.395 490.81 303.521 490.746C303.647 490.681 311.607 499.554 321.357 510.37ZM414.624 540.459L432.365 560.053L424.483 585.46L416.537 610.742L390.66 616.368L364.718 621.869L346.817 602.119L328.981 582.494L337.148 557.179L345.379 531.99L371.005 526.492C385.143 523.383 396.662 520.9 396.787 520.835C396.913 520.771 404.874 529.643 414.624 540.459ZM-496.805 335.94L-479.289 355.251L-487.425 380.471L-495.561 405.691L-521.598 411.161L-547.571 416.757L-565.377 397.038L-583.118 377.444L-574.981 352.224L-566.845 327.004L-541.093 321.442C-526.986 318.428 -515.182 316.037 -514.832 316.255C-514.577 316.442 -506.396 325.281 -496.805 335.94ZM-403.539 366.03L-386.022 385.341L-394.159 410.561L-402.295 435.781L-428.237 441.281L-454.179 446.782L-472.015 427.158L-489.756 407.564L-481.715 382.313L-473.578 357.093L-447.827 351.531C-433.72 348.517 -421.916 346.126 -421.566 346.344C-421.311 346.531 -413.129 355.37 -403.539 366.03ZM-310.273 396.119L-292.756 415.43L-300.892 440.65L-309.029 465.87L-334.97 471.371L-360.912 476.871L-378.749 457.247L-396.49 437.654L-388.448 412.403L-380.312 387.183L-354.56 381.621C-340.453 378.607 -328.649 376.215 -328.299 376.433C-328.044 376.621 -319.863 385.46 -310.273 396.119ZM-217.006 426.208L-199.489 445.52L-207.626 470.74L-215.762 495.96L-241.704 501.46L-267.615 506.866L-285.482 487.337L-303.223 467.743L-295.182 442.492L-287.045 417.272L-261.294 411.71C-247.187 408.696 -235.383 406.305 -235.033 406.523C-234.778 406.71 -226.597 415.549 -217.006 426.208ZM-123.74 456.298L-106.223 475.609L-114.359 500.829L-122.496 526.049L-148.438 531.55L-174.349 536.955L-192.216 517.426L-210.052 497.802L-201.915 472.582L-193.779 447.362L-168.027 441.8C-153.921 438.785 -142.116 436.394 -141.766 436.612C-141.511 436.8 -133.33 445.638 -123.74 456.298ZM-30.4733 486.387L-12.9564 505.698L-21.0928 530.918L-29.2292 556.138L-55.1712 561.639L-81.0824 567.044L-98.9493 547.515L-116.785 527.891L-108.649 502.671L-100.513 477.451L-74.761 471.889C-60.6542 468.875 -48.8498 466.484 -48.4998 466.702C-48.245 466.889 -40.0637 475.728 -30.4733 486.387ZM62.7931 516.477L80.31 535.788L72.1736 561.008L63.942 586.197L38.0953 591.728L12.1841 597.134L-5.68285 577.605L-23.519 557.981L-15.3826 532.761L-7.24619 507.541L18.5054 501.979C32.6123 498.964 44.4166 496.573 44.7666 496.791C45.0214 496.978 53.2027 505.817 62.7931 516.477ZM156.06 546.566L173.576 565.877L165.44 591.097L157.208 616.287L131.362 621.818L105.42 627.318L87.5836 607.694L69.7474 588.07L77.8838 562.85L86.0202 537.63L111.772 532.068C125.879 529.054 137.683 526.663 137.938 526.85C138.288 527.068 146.374 535.876 156.06 546.566ZM249.326 576.656L266.843 595.967L258.706 621.187L250.475 646.376L224.628 651.907L198.686 657.408L180.85 637.784L163.014 618.159L171.15 592.939L179.287 567.719L205.038 562.157C219.145 559.143 230.949 556.752 231.204 556.939C231.554 557.157 239.64 565.965 249.326 576.656ZM342.592 606.745L360.109 626.056L351.973 651.276L343.836 676.496L317.99 682.027L292.017 687.623L274.212 667.904L256.28 648.249L264.417 623.029L272.553 597.809L298.305 592.247C312.412 589.233 324.216 586.841 324.471 587.029C324.821 587.247 332.907 596.055 342.592 606.745ZM-476.368 431.532L-458.723 451.095L-467.049 476.254L-475.471 501.382L-501.223 506.944L-526.974 512.506L-544.715 492.912L-562.487 473.414L-554.446 448.163L-546.279 422.848L-520.558 417.381C-506.42 414.272 -494.68 411.755 -494.49 411.816C-494.3 411.877 -486.118 420.716 -476.368 431.532ZM-383.102 461.622L-365.456 481.185L-373.783 506.343L-382.205 531.471L-407.072 536.898C-420.737 539.845 -432.606 542.11 -433.367 541.864C-434.098 541.524 -442.436 532.844 -451.802 522.467L-468.809 503.531L-460.958 478.219L-453.043 453.033L-427.387 447.44C-413.154 444.361 -401.414 441.844 -401.224 441.905C-401.033 441.967 -392.852 450.806 -383.102 461.622ZM-289.836 491.711L-272.19 511.274L-280.516 536.433L-288.938 561.56L-313.806 566.987C-327.471 569.934 -339.339 572.199 -340.101 571.954C-340.831 571.613 -349.169 562.934 -358.536 552.557L-375.543 533.62L-367.692 508.308L-359.777 483.122L-334.12 477.529C-319.888 474.45 -308.148 471.933 -307.957 471.995C-307.767 472.056 -299.586 480.895 -289.836 491.711ZM-196.664 521.77L-178.923 541.363L-187.25 566.522L-195.672 591.65L-220.539 597.077C-234.204 600.024 -246.042 602.194 -246.804 601.948C-247.565 601.702 -255.903 593.023 -265.269 582.646L-282.277 563.71L-274.426 538.398L-266.48 513.116L-240.823 507.523C-226.621 504.54 -214.912 502.118 -214.786 502.054C-214.596 502.115 -206.414 510.954 -196.664 521.77ZM-103.398 551.859L-85.6569 571.453L-93.9836 596.611L-102.406 621.739L-127.273 627.166C-140.938 630.113 -152.776 632.283 -153.537 632.038C-154.299 631.792 -162.636 623.113 -172.003 612.736L-189.01 593.799L-181.159 568.487L-173.213 543.206L-147.557 537.613C-133.355 534.629 -121.645 532.207 -121.52 532.143C-121.329 532.204 -113.148 541.043 -103.398 551.859ZM-10.1315 581.949L7.60957 601.542L-0.7172 626.701L-9.13914 651.829L-34.0065 657.256C-47.6713 660.202 -59.5094 662.373 -60.2708 662.127C-61.0322 661.881 -69.3701 653.202 -78.7364 642.825L-95.7437 623.889L-87.8928 598.576L-79.9467 573.295L-54.2903 567.702C-40.0882 564.719 -28.379 562.297 -28.2532 562.232C-28.0628 562.294 -19.8815 571.133 -10.1315 581.949ZM83.135 612.038L100.845 631.727L92.5492 656.79L84.1273 681.918L59.2599 687.345C45.5951 690.292 33.757 692.462 32.9956 692.216C32.2343 691.971 23.8964 683.292 14.5301 672.914L-2.47725 653.978L5.37367 628.666L13.3198 603.384L38.9762 597.792C53.1782 594.808 64.9181 592.291 65.1084 592.353C65.2988 592.414 73.3542 601.317 83.135 612.038ZM176.401 642.128L194.112 661.816L185.816 686.88L177.394 712.008L152.526 717.435C138.862 720.381 127.023 722.551 126.231 722.401C125.47 722.155 117.163 713.381 107.796 703.004L90.7892 684.067L98.6401 658.755L106.586 633.474L132.243 627.881C146.445 624.898 158.185 622.381 158.375 622.442C158.565 622.503 166.621 631.407 176.401 642.128ZM269.668 672.217L287.409 691.811L279.242 717.126L271.01 742.315L245.194 747.751L219.347 753.282L201.701 733.72L184.056 714.157L191.907 688.845L199.853 663.563L225.509 657.971C239.711 654.987 251.451 652.47 251.641 652.531C251.832 652.593 259.918 661.401 269.668 672.217ZM-455.035 528.254L-438.126 546.844L-446.453 572.002L-454.875 597.13L-479.963 602.591C-493.849 605.572 -505.718 607.837 -506.258 607.557C-506.924 607.343 -515.167 598.694 -524.503 588.222L-541.541 569.381L-533.659 543.973L-525.682 518.597L-500.056 513.099C-485.382 509.953 -473.826 508.007 -473.092 508.664C-472.423 509.195 -464.242 518.034 -455.035 528.254ZM-361.769 558.344L-344.859 576.933L-353.186 602.092L-361.608 627.22L-385.908 632.515C-399.256 635.458 -410.935 637.785 -411.883 637.794C-412.706 637.739 -421.265 629.094 -430.886 618.529L-448.213 599.28L-440.362 573.967L-432.416 548.686L-406.79 543.189C-392.115 540.042 -380.56 538.096 -379.826 538.753C-379.157 539.284 -370.975 548.123 -361.769 558.344ZM-268.502 588.433L-251.593 607.023L-259.92 632.181L-268.342 657.309L-293.525 662.739C-307.411 665.72 -319.09 668.046 -319.566 667.893C-320.041 667.739 -328.158 659.026 -337.684 648.493L-354.946 629.369L-347.095 604.057L-339.149 578.775L-313.524 573.278C-298.849 570.132 -287.293 568.186 -286.559 568.843C-285.89 569.374 -277.709 578.213 -268.502 588.433ZM-175.236 618.523L-158.327 637.112L-166.653 662.271L-175.075 687.399L-200.259 692.829C-214.145 695.809 -225.823 698.136 -226.299 697.982C-226.775 697.829 -234.892 689.116 -244.418 678.582L-261.68 659.458L-253.829 634.146L-245.883 608.865L-220.257 603.367C-205.582 600.221 -194.027 598.275 -193.293 598.932C-192.624 599.463 -184.442 608.302 -175.236 618.523ZM-81.9693 648.612L-65.0602 667.202L-73.387 692.36L-81.8089 717.488L-106.108 722.783C-119.457 725.727 -131.135 728.053 -132.084 728.063C-132.907 728.007 -141.466 719.362 -151.087 708.798L-168.413 689.548L-160.563 664.236L-152.616 638.954L-126.991 633.457C-112.316 630.311 -100.76 628.364 -100.027 629.022C-99.3573 629.553 -91.176 638.392 -81.9693 648.612ZM11.2971 678.701L28.2062 697.291L19.8795 722.45L11.4575 747.577L-13.7261 753.007C-27.6119 755.988 -39.2904 758.315 -39.7663 758.161C-40.2421 758.008 -48.359 749.295 -57.8849 738.761L-75.147 719.637L-67.2961 694.325L-59.35 669.044L-33.7243 663.546C-19.0495 660.4 -7.49382 658.454 -6.76011 659.111C-6.09086 659.642 2.09046 668.481 11.2971 678.701ZM104.564 708.791L121.473 727.38L113.146 752.539L104.724 777.667L79.4145 783.161C65.4334 786.111 53.4357 788.125 52.7358 787.689C51.9713 787.127 43.8545 778.414 34.743 768.224L18.1194 749.727L25.9703 724.415L33.9164 699.133L59.5421 693.636C74.217 690.489 85.7726 688.543 86.5063 689.2C87.1756 689.731 95.3569 698.57 104.564 708.791ZM197.83 738.88L214.739 757.47L206.382 782.724L197.929 807.947L173.092 813.278C159.397 816.32 147.654 818.521 146.988 818.306C146.386 818.217 138.079 809.443 128.553 798.909L111.386 779.816L119.237 754.504L127.183 729.223L152.809 723.725C167.483 720.579 179.039 718.633 179.773 719.29C180.442 719.821 188.623 728.66 197.83 738.88ZM-435.206 623.125L-417.944 642.249L-426.142 667.659L-434.339 693.069L-459.523 698.499C-473.409 701.48 -485.182 703.776 -485.563 703.653C-486.039 703.5 -494.156 694.787 -503.682 684.253L-520.913 665.034L-512.746 639.719L-504.548 614.309L-479.681 608.882C-465.985 605.84 -454.307 603.513 -453.641 603.728C-453.039 603.817 -444.732 612.591 -435.206 623.125ZM-341.939 653.214L-324.677 672.338L-332.875 697.748L-341.073 723.159L-366.257 728.589C-380.142 731.569 -391.916 733.865 -392.297 733.743C-392.773 733.589 -400.889 724.876 -410.415 714.342L-427.647 695.123L-419.48 669.808L-411.282 644.398L-386.414 638.971C-372.719 635.929 -361.04 633.602 -360.374 633.817C-359.773 633.906 -351.465 642.681 -341.939 653.214ZM-248.673 683.304L-231.411 702.428L-239.609 727.838L-247.776 753.153L-272.99 758.678C-286.876 761.659 -298.554 763.986 -299.03 763.832C-299.506 763.678 -307.623 754.965 -317.149 744.432L-334.38 725.213L-326.213 699.898L-318.015 674.487L-293.148 669.06C-279.452 666.018 -267.774 663.692 -267.108 663.907C-266.506 663.996 -258.199 672.77 -248.673 683.304ZM-155.407 713.393L-138.144 732.517L-146.342 757.927L-154.509 783.243L-179.724 788.768C-193.61 791.748 -205.288 794.075 -205.764 793.921C-206.24 793.768 -214.357 785.055 -223.883 774.521L-241.114 755.302L-232.947 729.987L-224.749 704.577L-199.882 699.15C-186.186 696.108 -174.508 693.781 -173.841 693.996C-173.24 694.085 -164.932 702.86 -155.407 713.393ZM-62.1401 743.483L-44.878 762.606L-53.0758 788.017L-61.243 813.332L-86.4573 818.857C-100.343 821.838 -112.022 824.164 -112.497 824.011C-112.973 823.857 -121.09 815.144 -130.616 804.611L-147.848 785.392L-139.68 760.077L-131.483 734.666L-106.615 729.239C-92.9196 726.197 -81.2412 723.871 -80.575 724.086C-79.9733 724.175 -71.6661 732.949 -62.1401 743.483ZM31.1263 773.572L48.3884 792.696L40.1906 818.106L32.0235 843.421L6.80914 848.947C-7.0767 851.927 -18.7552 854.254 -19.231 854.1C-19.6117 853.977 -27.8237 845.234 -37.3497 834.7L-54.6118 815.576L-46.4139 790.166L-38.2161 764.756L-13.3487 759.329C0.346791 756.287 12.0253 753.96 12.6914 754.175C13.2932 754.264 21.6004 763.038 31.1263 773.572ZM124.393 803.661L141.655 822.785L133.457 848.196L125.29 873.511L100.076 879.036C86.1897 882.017 74.5113 884.343 74.0354 884.19C73.6547 884.067 65.4427 875.323 55.9168 864.79L38.6546 845.666L46.8525 820.255L55.0503 794.845L79.9177 789.418C93.6132 786.376 105.292 784.05 105.958 784.264C106.56 784.353 114.867 793.128 124.393 803.661Z" fill="#FFFF00"/>
</svg>
