<svg width="914" height="512" viewBox="0 0 914 512" fill="none" xmlns="http://www.w3.org/2000/svg">
<path d="M648.432 112.121L619.84 118.343L610.9 145.405L601.894 172.341L574.817 178.106L547.739 183.871L538.482 210.936L529.225 238.001L501.895 243.894L474.47 249.757L465.781 276.69L457.123 303.528L429.793 309.422L402.368 315.284L393.332 342.316L384.422 369.282L356.998 375.145L329.668 381.039L320.663 407.975L311.627 435.006L284.107 440.838L256.587 446.67L247.551 473.702L238.515 500.733L211.09 506.596L183.76 512.489L174.549 541.04L165.338 569.591L184.166 590.376L202.899 611.13L194.434 638.346L185.969 665.561L204.892 686.377L223.815 707.192L215.35 734.407L206.915 761.528L225.648 782.282L244.476 803.067L235.946 830.156L227.481 857.372L246.214 878.126L265.042 898.91L256.383 925.748L247.694 952.681L266.522 973.466L285.255 994.22L276.949 1021.59L268.644 1048.96L287.248 1069.47L305.851 1089.97L297.417 1117.09L288.857 1144.27L308.388 1165.81C319.065 1177.66 328.268 1187.57 328.873 1187.97C329.383 1188.35 342.231 1185.98 357.158 1182.7L384.456 1176.9L403.125 1197.53C413.353 1208.82 422.078 1218.25 422.554 1218.4C423.03 1218.56 435.623 1216 450.519 1212.82L477.723 1206.99L496.391 1227.62C506.62 1238.91 515.345 1248.34 515.82 1248.49C516.296 1248.65 528.89 1246.09 543.786 1242.91L570.989 1237.08L589.657 1257.71C599.886 1269 608.611 1278.43 609.087 1278.58C609.563 1278.74 622.156 1276.18 637.052 1273L664.256 1267.17L682.924 1287.8C693.153 1299.08 701.877 1308.52 702.353 1308.67C702.829 1308.83 715.423 1306.27 730.318 1303.09L757.522 1297.26L776.19 1317.89C786.419 1329.17 795.144 1338.61 795.62 1338.76C796.096 1338.92 808.689 1336.36 823.585 1333.18L850.789 1327.35L869.552 1348.01C879.75 1359.39 888.791 1368.82 889.423 1368.81C890.151 1368.84 903.407 1366.18 918.997 1362.8L947.432 1356.74L956.373 1329.68L965.378 1302.74L992.456 1296.98L1019.53 1291.21L1028.79 1264.15L1038.05 1237.08L1065.47 1231.22L1092.8 1225.33L1101.49 1198.4L1110.15 1171.56L1137.48 1165.66L1164.9 1159.8L1173.94 1132.77L1182.85 1105.8L1210.28 1099.94L1237.6 1094.05L1246.61 1067.11L1255.65 1040.08L1283.17 1034.25L1310.69 1028.41L1319.72 1001.38L1328.76 974.352L1356.18 968.49L1383.51 962.596L1392.72 934.045L1401.93 905.494L1383.2 884.74L1364.37 863.955L1372.84 836.74L1381.3 809.524L1362.38 788.709L1343.46 767.894L1351.92 740.678L1360.36 713.558L1341.62 692.804L1322.8 672.019L1331.33 644.929L1339.79 617.714L1321.06 596.96L1302.23 576.175L1310.89 549.337L1319.58 522.404L1300.85 501.65L1282.02 480.865L1290.32 453.493L1298.63 426.121L1280.02 405.619L1261.42 385.117L1269.86 357.996L1278.42 330.811L1258.88 309.275C1248.21 297.424 1239 287.52 1238.4 287.114C1237.89 286.74 1225.04 289.109 1210.11 292.385L1182.82 298.183L1164.15 277.555C1153.92 266.269 1145.19 256.835 1144.72 256.681C1144.24 256.528 1131.65 259.084 1116.75 262.265L1089.55 268.094L1070.88 247.465C1060.65 236.18 1051.93 226.745 1051.45 226.592C1050.98 226.438 1038.38 228.995 1023.49 232.175L996.283 238.004L977.615 217.376C967.386 206.09 958.661 196.656 958.186 196.502C957.71 196.349 945.116 198.906 930.221 202.086L903.017 207.915L884.349 187.287C874.12 176.001 865.395 166.566 864.919 166.413C864.443 166.259 851.85 168.816 836.954 171.996L809.75 177.825L791.082 157.197C780.853 145.911 772.129 136.477 771.653 136.323C771.177 136.17 758.584 138.727 743.688 141.907L716.484 147.736L697.816 127.108C687.587 115.822 678.672 106.326 678.07 106.237C677.404 106.022 664.022 108.745 648.432 112.121ZM694.356 132.296L711.618 151.42L703.42 176.83L695.222 202.24L670.039 207.67C656.153 210.651 644.474 212.978 643.998 212.824C643.618 212.701 635.406 203.958 625.88 193.424L608.618 174.3L616.815 148.89L624.983 123.575L649.881 118.053C663.576 115.011 675.255 112.684 675.921 112.899C676.523 112.988 684.83 121.762 694.356 132.296ZM787.622 162.385L804.884 181.509L796.686 206.92L788.489 232.33L763.305 237.76C749.419 240.74 737.741 243.067 737.265 242.914C736.884 242.791 728.672 234.047 719.146 223.513L701.884 204.39L710.082 178.979L718.249 153.664L743.147 148.142C756.843 145.1 768.521 142.773 769.187 142.988C769.789 143.077 778.096 151.852 787.622 162.385ZM880.889 192.475L898.12 211.694L889.953 237.009L881.755 262.419L856.571 267.849C842.686 270.83 831.007 273.157 830.531 273.003C830.055 272.85 821.939 264.136 812.413 253.603L795.151 234.479L803.348 209.069L811.515 183.754L836.414 178.231C850.109 175.19 861.788 172.863 862.454 173.078C863.055 173.167 871.363 181.941 880.889 192.475ZM974.155 222.564L991.386 241.783L983.219 267.098L975.021 292.509L949.838 297.939C935.952 300.919 924.274 303.246 923.798 303.092C923.322 302.939 915.205 294.226 905.679 283.692L888.417 264.569L896.615 239.158L904.782 213.843L929.68 208.321C943.376 205.279 955.054 202.952 955.72 203.167C956.322 203.256 964.629 212.031 974.155 222.564ZM1067.42 252.654L1084.65 271.873L1076.49 297.188L1068.29 322.598L1043.1 328.028C1029.22 331.009 1017.54 333.335 1017.06 333.182C1016.59 333.028 1008.47 324.315 998.945 313.782L981.683 294.658L989.881 269.248L998.048 243.932L1022.95 238.41C1036.64 235.368 1048.32 233.042 1048.99 233.257C1049.59 233.346 1057.9 242.12 1067.42 252.654ZM1160.69 282.743L1177.92 301.962L1169.75 327.277L1161.55 352.688L1136.37 358.118C1122.48 361.098 1110.71 363.394 1110.33 363.271C1109.85 363.118 1101.74 354.405 1092.21 343.871L1074.95 324.747L1083.15 299.337L1091.35 273.927L1116.21 268.5C1129.91 265.458 1141.59 263.131 1142.25 263.346C1142.85 263.435 1151.16 272.209 1160.69 282.743ZM1253.95 312.833L1271.19 332.052L1263.02 357.367L1254.82 382.777L1229.64 388.207C1215.75 391.188 1203.98 393.484 1203.6 393.361C1203.12 393.207 1195 384.494 1185.48 373.961L1168.22 354.837L1176.41 329.426L1184.61 304.016L1209.48 298.589C1223.17 295.547 1234.85 293.221 1235.52 293.435C1236.12 293.525 1244.43 302.299 1253.95 312.833ZM621.72 198.176L638.887 217.269L630.689 242.68L622.522 267.995L596.896 273.493L571.175 278.959L553.594 259.522L535.917 240.055L544.115 214.644L552.344 189.139L577.18 183.807C590.876 180.765 602.619 178.564 603.285 178.779C603.887 178.868 612.194 187.643 621.72 198.176ZM714.986 228.266L732.153 247.359L723.955 272.769L715.788 298.084L690.162 303.582L664.442 309.049L646.86 289.612L629.184 270.144L637.381 244.734L645.549 219.419L670.416 213.992C684.111 210.95 695.885 208.654 696.551 208.869C697.153 208.958 705.46 217.732 714.986 228.266ZM808.157 258.325L825.42 277.448L817.252 302.763L809.055 328.174L783.429 333.671L757.708 339.138L740.127 319.701L722.45 300.234L730.648 274.823L738.815 249.508L763.682 244.081C777.378 241.039 789.056 238.712 789.723 238.927C790.324 239.016 798.631 247.791 808.157 258.325ZM901.424 288.414L918.686 307.538L910.519 332.853L902.321 358.263L876.695 363.761L850.974 369.228L833.393 349.791L815.716 330.323L823.914 304.913L832.081 279.598L856.949 274.171C870.644 271.129 882.323 268.802 882.989 269.017C883.591 269.106 891.898 277.88 901.424 288.414ZM994.785 318.534L1011.95 337.627L1003.75 363.037L995.587 388.353L969.962 393.85L944.241 399.317L926.659 379.88L908.983 360.412L917.181 335.002L925.348 309.687L950.215 304.26C963.911 301.218 975.684 298.922 976.351 299.137C976.952 299.226 985.26 308 994.785 318.534ZM1087.96 348.593L1105.22 367.717L1097.05 393.032L1088.85 418.442L1063.23 423.94L1037.51 429.406L1019.93 409.97L1002.25 390.502L1010.45 365.092L1018.61 339.776L1043.48 334.349C1057.18 331.307 1068.86 328.981 1069.52 329.196C1070.12 329.285 1078.43 338.059 1087.96 348.593ZM1181.22 378.682L1198.49 397.806L1190.32 423.121L1182.12 448.531L1156.49 454.029L1130.77 459.496L1113.19 440.059L1095.52 420.591L1103.68 395.276L1111.88 369.866L1136.75 364.439C1150.44 361.397 1162.12 359.07 1162.79 359.285C1163.39 359.374 1171.7 368.149 1181.22 378.682ZM1274.78 408.864L1291.81 427.705L1283.58 453.211L1275.39 478.621L1249.76 484.118L1224.04 489.585L1206.46 470.148L1188.78 450.681L1196.95 425.366L1205.15 399.955L1230.01 394.528C1243.71 391.486 1255.58 389.221 1256.34 389.467C1257.1 389.712 1265.44 398.391 1274.78 408.864ZM553.078 268.287L566.217 282.929L558.366 308.241L550.42 333.522L524.447 339.118L498.505 344.619L480.669 324.994L462.864 305.275L471.031 279.96L479.262 254.771L504.888 249.273L530.514 243.775L535.211 248.758C537.799 251.485 545.885 260.293 553.078 268.287ZM1304.72 548.922L1296.55 574.238L1270.58 579.833L1244.64 585.334L1226.8 565.71L1209 545.99L1217.32 520.832L1225.74 495.704L1251.5 490.142L1277.25 484.58L1294.99 504.173L1312.76 523.672L1304.72 548.922ZM642.476 294.082L659.483 313.018L651.632 338.33L643.686 363.612L617.714 369.207L591.772 374.708L573.966 354.989L556.161 335.269L564.457 310.206L572.879 285.078L597.746 279.651C611.411 276.704 623.249 274.534 624.041 274.685C624.803 274.93 633.11 283.705 642.476 294.082ZM735.742 324.171L752.75 343.108L744.899 368.42L736.953 393.701L710.98 399.297L685.038 404.797L667.233 385.078L649.427 365.359L657.723 340.295L666.145 315.167L691.013 309.74C704.677 306.794 716.516 304.624 717.277 304.869C718.038 305.115 726.376 313.794 735.742 324.171ZM829.009 354.26L846.016 373.197L838.165 398.509L830.219 423.79L804.247 429.386L778.305 434.887L760.468 415.263L742.663 395.543L750.99 370.385L759.412 345.257L784.279 339.83C797.944 336.883 809.782 334.713 810.543 334.959C811.305 335.204 819.643 343.883 829.009 354.26ZM922.275 384.35L939.283 403.286L931.432 428.599L923.486 453.88L897.513 459.476L871.571 464.976L853.735 445.352L835.929 425.633L844.256 400.474L852.678 375.346L877.545 369.919C891.21 366.973 903.048 364.802 903.81 365.048C904.571 365.294 912.909 373.973 922.275 384.35ZM1015.54 414.439L1032.55 433.376L1024.7 458.688L1016.75 483.969L990.779 489.565L964.837 495.066L947.001 475.442L929.196 455.722L937.523 430.564L945.944 405.436L970.812 400.009C984.477 397.062 996.315 394.892 997.076 395.137C997.837 395.383 1006.18 404.062 1015.54 414.439ZM1108.81 444.529L1125.82 463.465L1117.96 488.777L1110.05 513.964L1084.08 519.559L1058.1 525.155L1040.27 505.531L1022.46 485.812L1030.79 460.653L1039.21 435.525L1064.08 430.098C1077.74 427.151 1089.61 424.886 1090.37 425.132C1091.1 425.472 1099.44 434.152 1108.81 444.529ZM1202.07 474.618L1219.08 493.555L1211.23 518.867L1203.32 544.053L1177.34 549.649L1151.37 555.245L1133.53 535.62L1115.73 515.901L1124.06 490.742L1132.48 465.614L1157.34 460.188C1171.01 457.241 1182.88 454.976 1183.64 455.221C1184.37 455.562 1192.71 464.241 1202.07 474.618ZM476.38 329.495L493.992 348.837L485.856 374.057L477.719 399.277L451.777 404.777L425.931 410.309L407.999 390.654L390.163 371.03L398.3 345.81L406.436 320.589L432.188 315.027C446.294 312.013 458.099 309.622 458.354 309.809C458.608 309.997 466.79 318.835 476.38 329.495ZM569.647 359.584L587.259 378.926L579.122 404.146L570.986 429.366L545.044 434.867L519.197 440.398L501.266 420.743L483.43 401.119L491.566 375.899L499.798 350.71L525.454 345.117C539.561 342.103 551.335 339.807 551.62 339.899C551.875 340.086 560.056 348.925 569.647 359.584ZM662.913 389.674L680.525 409.016L672.389 434.236L664.252 459.456L638.31 464.956L612.464 470.487L594.532 450.833L576.696 431.208L584.832 405.988L593.064 380.799L618.72 375.206C632.827 372.192 644.601 369.896 644.886 369.988C645.141 370.175 653.323 379.014 662.913 389.674ZM756.179 419.763L773.792 439.105L765.655 464.325L757.519 489.545L731.577 495.046L705.604 500.641L687.799 480.922L669.962 461.298L678.099 436.078L686.33 410.888L711.987 405.296C726.094 402.281 737.867 399.985 738.153 400.078C738.408 400.265 746.494 409.073 756.179 419.763ZM849.446 449.853L867.058 469.194L858.922 494.414L850.785 519.634L824.843 525.135L798.871 530.731L781.065 511.011L763.229 491.387L771.365 466.167L779.502 440.947L805.223 435.48C819.36 432.371 831.134 430.075 831.389 430.262C831.674 430.354 839.76 439.162 849.446 449.853ZM942.712 479.942L960.324 499.284L952.188 524.504L944.052 549.724L918.11 555.224L892.137 560.82L874.331 541.101L856.495 521.477L864.632 496.257L872.768 471.037L898.489 465.57C912.627 462.46 924.4 460.164 924.655 460.352C924.941 460.444 933.027 469.252 942.712 479.942ZM1035.98 510.031L1053.5 529.343L1045.45 554.593L1037.32 579.813L1011.38 585.314L985.403 590.91L967.598 571.19L949.762 551.566L957.898 526.346L966.035 501.126L991.755 495.659C1005.89 492.55 1017.67 490.254 1017.92 490.441C1018.21 490.533 1026.39 499.372 1035.98 510.031ZM1129.25 540.121L1146.76 559.432L1138.72 584.683L1130.58 609.903L1104.64 615.403L1078.61 620.873L1060.86 601.28L1043.03 581.655L1051.16 556.435L1059.3 531.215L1085.05 525.653C1099.16 522.639 1110.93 520.343 1111.22 520.435C1111.47 520.623 1119.65 529.461 1129.25 540.121ZM1222.51 570.21L1240.03 589.521L1231.99 614.772L1223.85 639.992L1197.91 645.493L1171.87 650.963L1154.13 631.369L1136.29 611.745L1144.43 586.525L1152.57 561.305L1178.32 555.743C1192.43 552.729 1204.2 550.433 1204.49 550.525C1204.74 550.712 1212.92 559.551 1222.51 570.21ZM1315.87 600.33L1333.39 619.642L1325.25 644.862L1317.12 670.082L1291.18 675.582L1265.14 681.052L1247.4 661.459L1229.56 641.834L1237.7 616.614L1245.83 591.394L1271.59 585.832C1285.69 582.818 1297.47 580.522 1297.85 580.645C1298.2 580.863 1306.38 589.702 1315.87 600.33ZM403.551 394.998L421.292 414.591L413.125 439.906L404.893 465.096L379.046 470.627L353.135 476.032L335.489 456.47L317.908 437.033L325.789 411.625L333.736 386.344L359.392 380.751C373.594 377.768 385.239 375.22 385.429 375.281C385.619 375.343 393.675 384.246 403.551 394.998ZM496.722 425.056L514.527 444.776L506.391 469.996L498.159 495.185L472.218 500.686L446.402 506.122L428.756 486.559L411.174 467.122L419.025 441.81L426.971 416.529L452.628 410.936C466.86 407.857 478.474 405.404 478.665 405.466C478.791 405.401 486.941 414.336 496.722 425.056ZM589.988 455.146L607.794 474.865L599.657 500.085L591.426 525.275L565.484 530.775L539.668 536.211L522.022 516.648L504.441 497.212L512.292 471.899L520.238 446.618L545.894 441.025C560.127 437.947 571.741 435.494 571.931 435.555C572.057 435.491 580.208 444.425 589.988 455.146ZM683.255 485.235L701.06 504.955L692.924 530.175L684.692 555.364L658.75 560.865L632.934 566.301L615.289 546.738L597.707 527.301L605.558 501.989L613.504 476.707L639.161 471.115C653.393 468.036 665.007 465.583 665.198 465.645C665.323 465.58 673.474 474.514 683.255 485.235ZM776.521 515.325L794.327 535.044L786 560.203L777.578 585.331L751.952 590.828L726.201 596.39L708.65 576.858L690.974 557.39L698.824 532.078L706.771 506.797L732.427 501.204C746.66 498.125 758.274 495.673 758.464 495.734C758.59 495.67 766.741 504.604 776.521 515.325ZM869.788 545.414L887.593 565.133L879.266 590.292L870.845 615.42L845.219 620.917L819.467 626.48L801.917 606.947L784.24 587.48L792.091 562.168L800.037 536.886L825.693 531.294C839.926 528.215 851.54 525.762 851.73 525.824C851.856 525.759 860.007 534.693 869.788 545.414ZM963.054 575.504L980.86 595.223L972.533 620.381L964.111 645.509L938.485 651.007L912.734 656.569L895.183 637.037L877.506 617.569L885.357 592.257L893.303 566.976L918.96 561.383C933.193 558.304 944.807 555.852 944.997 555.913C945.123 555.849 953.273 564.783 963.054 575.504ZM1056.32 605.593L1074.13 625.312L1065.8 650.471L1057.38 675.599L1031.75 681.096L1006 686.658L988.228 667.16L970.392 647.536L978.433 622.285L986.57 597.065L1012.32 591.503C1026.46 588.394 1038.07 585.941 1038.26 586.002C1038.39 585.938 1046.54 594.872 1056.32 605.593ZM1149.59 635.682L1167.39 655.402L1159.07 680.56L1150.64 705.688L1125.02 711.186L1099.27 716.748L1081.49 697.249L1063.66 677.625L1071.7 652.375L1079.84 627.155L1105.59 621.592C1119.73 618.483 1131.34 616.03 1131.53 616.092C1131.66 616.027 1139.81 624.961 1149.59 635.682ZM1242.85 665.772L1260.66 685.491L1252.33 710.65L1243.91 735.778L1218.28 741.275L1192.53 746.837L1174.76 727.339L1156.93 707.715L1164.97 682.464L1173.1 657.244L1198.85 651.682C1212.99 648.572 1224.61 646.12 1224.8 646.181C1224.92 646.117 1233.07 655.051 1242.85 665.772ZM1336.31 695.923L1353.96 715.485L1345.63 740.644L1337.18 765.867L1311.55 771.365L1285.8 776.927L1267.93 757.398L1250.19 737.804L1258.23 712.553L1266.4 687.238L1292.12 681.771C1306.26 678.662 1317.97 676.24 1318.19 676.206C1318.38 676.268 1326.56 685.107 1336.31 695.923ZM331.713 461.661L348.591 480.346L340.265 505.504L331.812 530.727L306.975 536.059C293.28 539.101 281.442 541.271 280.68 541.025C279.919 540.78 271.612 532.005 262.245 521.628L245.238 502.692L253.12 477.285L261.066 452.003L286.691 446.506C300.894 443.522 312.922 441.413 313.591 441.945C314.26 442.476 322.347 451.284 331.713 461.661ZM424.212 490.872L441.858 510.435L433.531 535.594L425.078 560.817L400.242 566.149C386.546 569.19 374.708 571.361 373.947 571.115C373.185 570.869 364.878 562.095 355.512 551.718L338.504 532.781L346.355 507.469L354.301 482.188L379.927 476.69C394.16 473.612 405.869 471.19 406.059 471.251C406.25 471.313 414.431 480.151 424.212 490.872ZM517.478 520.962L535.124 540.524L526.797 565.683L518.345 590.906L493.508 596.238C479.813 599.28 467.974 601.45 467.213 601.204C466.452 600.959 458.145 592.184 448.778 581.807L431.771 562.871L439.622 537.559L447.568 512.277L473.194 506.78C487.426 503.701 499.136 501.279 499.326 501.341C499.516 501.402 507.698 510.241 517.478 520.962ZM610.745 551.051L628.391 570.614L620.064 595.773L611.611 620.996L586.774 626.327C573.079 629.369 561.241 631.539 560.48 631.294C559.718 631.048 551.411 622.274 542.045 611.897L525.037 592.96L532.888 567.648L540.834 542.367L566.46 536.869C580.693 533.79 592.402 531.369 592.592 531.43C592.783 531.491 600.964 540.33 610.745 551.051ZM704.011 581.141L721.657 600.703L713.33 625.862L704.908 650.99L680.041 656.417C666.376 659.364 654.507 661.629 653.746 661.383C652.985 661.138 644.677 652.363 635.311 641.986L618.304 623.05L626.155 597.738L634.101 572.456L659.726 566.959C673.959 563.88 685.668 561.458 685.859 561.519C686.049 561.581 694.23 570.42 704.011 581.141ZM797.278 611.23L814.923 630.793L806.597 655.951L798.175 681.079L773.307 686.506C759.643 689.453 747.774 691.718 747.012 691.473C746.251 691.227 737.944 682.453 728.578 672.076L711.57 653.139L719.421 627.827L727.367 602.546L752.993 597.048C767.226 593.969 778.935 591.547 779.125 591.609C779.316 591.67 787.497 600.509 797.278 611.23ZM890.544 641.319L908.19 660.882L899.863 686.041L891.441 711.169L866.574 716.596C852.909 719.542 841.04 721.808 840.279 721.562C839.517 721.316 831.21 712.542 821.844 702.165L804.837 683.228L812.688 657.916L820.634 632.635L846.259 627.137C860.492 624.059 872.201 621.637 872.392 621.698C872.582 621.76 880.763 630.598 890.544 641.319ZM983.81 671.409L1001.46 690.972L993.13 716.13L984.708 741.258L959.84 746.685C946.175 749.632 934.307 751.897 933.545 751.651C932.784 751.406 924.477 742.631 915.11 732.254L898.103 713.318L905.954 688.006L913.9 662.724L939.526 657.227C953.759 654.148 965.468 651.726 965.658 651.788C965.848 651.849 974.03 660.688 983.81 671.409ZM1077.08 701.498L1094.72 721.061L1086.4 746.22L1077.97 771.348L1053.11 776.774C1039.44 779.721 1027.57 781.987 1026.81 781.741C1026.05 781.495 1017.71 772.816 1008.38 762.344L991.339 743.502L999.22 718.095L1007.17 692.814L1032.79 687.316C1047.02 684.237 1058.73 681.816 1058.92 681.877C1059.11 681.938 1067.3 690.777 1077.08 701.498ZM1170.34 731.588L1187.99 751.15L1179.66 776.309L1171.24 801.437L1146.37 806.864C1132.71 809.811 1120.84 812.076 1120.08 811.83C1119.32 811.585 1110.98 802.905 1101.64 792.433L1084.61 773.592L1092.49 748.185L1100.43 722.903L1126.06 717.406C1140.29 714.327 1152 711.905 1152.19 711.967C1152.38 712.028 1160.56 720.867 1170.34 731.588ZM1263.61 761.677L1281.26 781.24L1272.93 806.398L1264.51 831.526L1239.64 836.953C1225.97 839.9 1214.11 842.165 1213.34 841.92C1212.58 841.674 1204.25 832.995 1194.91 822.523L1177.87 803.681L1185.75 778.274L1193.7 752.993L1219.33 747.495C1233.56 744.416 1245.27 741.995 1245.46 742.056C1245.65 742.117 1253.83 750.956 1263.61 761.677ZM1357.64 792.645L1374.55 811.234L1366.23 836.393L1357.77 861.616L1332.91 867.043C1319.24 869.99 1307.37 872.255 1306.61 872.009C1305.85 871.764 1297.51 863.084 1288.18 852.612L1271.14 833.771L1279.02 808.364L1286.97 783.082L1312.62 777.489C1327.17 774.408 1338.85 772.397 1339.59 773.054C1340.26 773.585 1348.44 782.424 1357.64 792.645ZM258.276 526.442L275.507 545.661L267.34 570.976L259.173 596.291L233.768 601.755C219.852 604.831 207.854 606.844 207.059 606.378C206.39 605.847 198.273 597.134 189.161 586.944L172.538 568.446L180.735 543.036L188.933 517.626L213.801 512.199C227.496 509.157 239.175 506.83 239.841 507.045C240.443 507.134 248.75 515.909 258.276 526.442ZM351.542 556.532L368.774 575.75L360.606 601.066L352.439 626.381L327.225 631.906C313.339 634.887 301.661 637.213 301.28 637.09C300.804 636.937 292.623 628.098 283.032 617.439L265.451 598.002L273.526 572.972L281.601 547.942L306.815 542.417C320.637 539.311 332.41 537.015 333.107 537.134C333.709 537.224 342.016 545.998 351.542 556.532ZM444.809 586.621L462.04 605.84L453.873 631.155L445.706 656.47L420.491 661.995C406.605 664.976 394.927 667.303 394.546 667.18C394.071 667.026 385.889 658.187 376.299 647.528L358.717 628.091L366.792 603.061L374.867 578.032L400.082 572.507C413.903 569.4 425.677 567.104 426.374 567.224C426.975 567.313 435.283 576.087 444.809 586.621ZM538.075 616.71L555.306 635.929L547.139 661.245L538.972 686.56L513.758 692.085C499.872 695.065 488.193 697.392 487.813 697.269C487.337 697.116 479.156 688.277 469.565 677.617L451.984 658.18L460.059 633.151L468.134 608.121L493.348 602.596C507.17 599.49 518.943 597.194 519.64 597.313C520.242 597.402 528.549 606.177 538.075 616.71ZM631.341 646.8L648.573 666.019L640.406 691.334L632.239 716.649L607.024 722.174C593.138 725.155 581.46 727.482 581.079 727.359C580.603 727.205 572.422 718.366 562.832 707.707L545.25 688.27L553.325 663.24L561.4 638.211L586.615 632.685C600.436 629.579 612.21 627.283 612.907 627.403C613.508 627.492 621.815 636.266 631.341 646.8ZM724.608 676.889L741.839 696.108L733.672 721.423L725.505 746.739L700.291 752.264C686.405 755.244 674.631 757.54 674.25 757.417C673.87 757.295 665.658 748.551 656.132 738.017L638.9 718.798L647.068 693.483L655.235 668.168L680.133 662.646C693.798 659.699 705.507 657.277 706.173 657.492C706.775 657.581 715.082 666.356 724.608 676.889ZM817.874 706.979L835.106 726.198L826.939 751.513L818.771 776.828L793.557 782.353C779.671 785.334 767.898 787.63 767.517 787.507C767.136 787.384 758.924 778.64 749.398 768.107L732.167 748.888L740.334 723.573L748.501 698.257L773.399 692.735C787.064 689.789 798.773 687.367 799.439 687.582C800.041 687.671 808.348 696.445 817.874 706.979ZM911.141 737.068L928.372 756.287L920.205 781.602L912.038 806.917L886.824 812.443C872.938 815.423 861.164 817.719 860.783 817.596C860.403 817.473 852.191 808.73 842.665 798.196L825.433 778.977L833.6 753.662L841.768 728.347L866.666 722.825C880.33 719.878 892.04 717.456 892.706 717.671C893.307 717.76 901.615 726.535 911.141 737.068ZM1004.44 767.379L1022.02 786.816L1013.95 811.845L1005.87 836.875L980.246 842.372C966.235 845.417 954.43 847.809 953.955 847.655C953.574 847.532 945.457 838.819 935.931 828.286L918.7 809.067L926.867 783.751L935.034 758.436L959.932 752.914C973.597 749.967 985.306 747.546 985.877 747.73C986.479 747.819 994.85 756.719 1004.44 767.379ZM1097.71 797.468L1115.29 816.905L1107.21 841.935L1099.14 866.964L1073.51 872.462C1059.5 875.507 1047.7 877.898 1047.22 877.744C1046.84 877.622 1038.72 868.909 1029.2 858.375L1011.97 839.156L1020.13 813.841L1028.3 788.526L1053.2 783.004C1066.86 780.057 1078.57 777.635 1079.14 777.819C1079.75 777.908 1088.12 786.809 1097.71 797.468ZM1190.97 827.557L1208.56 846.994L1200.48 872.024L1192.41 897.054L1166.78 902.551C1152.77 905.596 1140.96 907.987 1140.49 907.834C1140.11 907.711 1131.99 898.998 1122.46 888.464L1105.23 869.245L1113.4 843.93L1121.57 818.615L1146.46 813.093C1160.13 810.146 1171.84 807.724 1172.41 807.909C1173.01 807.998 1181.38 816.898 1190.97 827.557ZM1284.24 857.647L1301.82 877.084L1293.75 902.113L1285.67 927.143L1260.05 932.641C1246.03 935.686 1234.23 938.077 1233.75 937.923C1233.37 937.8 1225.26 929.087 1215.73 918.554L1198.5 899.335L1206.67 874.02L1214.83 848.705L1239.73 843.182C1253.4 840.236 1265.11 837.814 1265.68 837.998C1266.28 838.087 1274.65 846.987 1284.24 857.647ZM1377.57 887.546L1394.73 906.639L1386.54 932.049L1378.34 957.46L1354.04 962.755C1340.69 965.698 1329.01 968.025 1328.16 968.065C1327.24 967.979 1318.68 959.333 1309.19 948.705L1291.77 929.424L1299.93 904.109L1308.1 878.794L1333 873.272C1346.66 870.325 1358.47 867.934 1359.13 868.149C1359.73 868.238 1368.04 877.012 1377.57 887.546ZM279.096 622.473L296.134 641.315L288.253 666.722L280.307 692.003L255.218 697.464C241.363 700.349 229.399 702.584 228.638 702.338C227.876 702.093 219.443 693.383 209.917 682.849L192.72 663.851L201.047 638.693L209.499 613.47L234.367 608.043C248.031 605.096 259.9 602.831 260.662 603.076C261.423 603.322 269.761 612.001 279.096 622.473ZM372.363 652.563L389.401 671.404L381.519 696.811L373.573 722.093L347.631 727.593L321.659 733.189L303.853 713.47L286.017 693.846L294.344 668.687L302.766 643.559L327.633 638.132C341.298 635.185 353.167 632.92 353.928 633.166C354.689 633.411 363.027 642.091 372.363 652.563ZM465.629 682.652L482.667 701.493L474.786 726.901L466.84 752.182L440.898 757.683L414.925 763.279L397.12 743.559L379.283 723.935L387.61 698.776L396.032 673.648L420.899 668.221C434.564 665.275 446.433 663.009 447.194 663.255C447.956 663.501 456.294 672.18 465.629 682.652ZM558.896 712.742L575.934 731.583L568.052 756.99L560.106 782.272L534.164 787.772L508.191 793.368L490.386 773.649L472.55 754.024L480.877 728.866L489.298 703.738L514.166 698.311C527.831 695.364 539.699 693.099 540.461 693.344C541.222 693.59 549.56 702.269 558.896 712.742ZM652.162 742.831L669.169 761.767L661.319 787.08L653.372 812.361L627.431 817.862L601.458 823.457L583.652 803.738L565.816 784.114L574.143 758.955L582.565 733.827L607.432 728.4C621.097 725.454 632.966 723.188 633.727 723.434C634.489 723.68 642.796 732.454 652.162 742.831ZM745.429 772.92L762.436 791.857L754.585 817.169L746.639 842.45L720.697 847.951L694.724 853.547L676.919 833.827L659.083 814.203L667.409 789.045L675.831 763.917L700.699 758.49C714.364 755.543 726.232 753.278 726.994 753.523C727.755 753.769 736.062 762.543 745.429 772.92ZM838.695 803.01L855.702 821.946L847.851 847.258L839.905 872.54L813.963 878.04L787.991 883.636L770.185 863.917L752.349 844.293L760.676 819.134L769.098 794.006L793.965 788.579C807.63 785.632 819.499 783.367 820.26 783.613C821.021 783.858 829.329 792.633 838.695 803.01ZM931.961 833.099L948.969 852.036L941.118 877.348L933.172 902.629L907.23 908.13L881.257 913.726L863.452 894.006L845.615 874.382L853.942 849.223L862.364 824.096L887.232 818.669C900.896 815.722 912.765 813.457 913.527 813.702C914.288 813.948 922.595 822.722 931.961 833.099ZM1025.23 863.189L1042.24 882.125L1034.38 907.437L1026.44 932.719L1000.5 938.219L974.524 943.815L956.718 924.096L938.882 904.472L947.209 879.313L955.661 854.09L980.498 848.758C994.194 845.716 1006.03 843.546 1006.79 843.792C1007.55 844.037 1015.86 852.812 1025.23 863.189ZM1118.49 893.278L1135.5 912.215L1127.65 937.527L1119.7 962.808L1093.76 968.309L1067.79 973.905L1049.98 954.185L1032.15 934.561L1040.48 909.402L1048.93 884.179L1073.76 878.847C1087.46 875.806 1099.3 873.635 1100.06 873.881C1100.82 874.127 1109.13 882.901 1118.49 893.278ZM1211.76 923.368L1228.77 942.304L1220.92 967.616L1212.97 992.898L1187.03 998.398L1161.06 1003.99L1143.25 984.275L1125.41 964.65L1133.74 939.492L1142.19 914.269L1167.03 908.937C1180.73 905.895 1192.56 903.725 1193.33 903.97C1194.09 904.216 1202.39 912.991 1211.76 923.368ZM1305.03 953.457L1322.03 972.393L1314.15 997.801L1306.21 1023.08L1281.15 1028.45C1267.26 1031.43 1255.33 1033.57 1254.57 1033.32C1253.81 1033.08 1245.4 1024.27 1235.85 1013.83L1218.68 994.74L1227.01 969.581L1235.46 944.358L1260.3 939.026C1273.99 935.984 1285.83 933.814 1286.59 934.06C1287.35 934.306 1295.66 943.08 1305.03 953.457ZM299.564 717.97L317.081 737.281L309.04 762.532L300.873 787.847L274.931 793.348L248.863 798.913L231.027 779.289L213.316 759.6L221.643 734.441L230.096 709.218L255.531 703.659C269.574 700.519 281.157 698.162 281.412 698.349C281.792 698.472 289.879 707.28 299.564 717.97ZM392.831 748.06L410.347 767.371L402.306 792.621L394.17 817.841L368.197 823.437L342.255 828.938L324.419 809.314L306.614 789.594L314.94 764.436L323.362 739.308L348.798 733.749C362.84 730.609 374.423 728.251 374.678 728.439C374.964 728.531 383.145 737.37 392.831 748.06ZM486.097 778.149L503.614 797.46L495.573 822.711L487.436 847.931L461.464 853.527L435.522 859.027L417.685 839.403L399.88 819.684L408.207 794.525L416.629 769.397L442.064 763.838C456.106 760.698 467.69 758.341 467.945 758.528C468.23 758.62 476.411 767.459 486.097 778.149ZM579.363 808.239L596.88 827.55L588.839 852.8L580.703 878.02L554.73 883.616L528.788 889.117L510.952 869.492L493.146 849.773L501.473 824.615L509.895 799.487L535.33 793.928C549.373 790.788 560.956 788.43 561.211 788.617C561.497 788.71 569.678 797.548 579.363 808.239ZM672.025 837.923L689.766 857.516L681.915 882.828L673.969 908.11L647.996 913.706L622.055 919.206L604.218 899.582L586.413 879.863L594.74 854.704L603.162 829.576L628.597 824.017C642.639 820.877 654.063 818.363 654.189 818.299C654.315 818.234 662.275 827.107 672.025 837.923ZM765.292 868.012L783.033 887.606L775.182 912.918L767.236 938.199L741.263 943.795L715.321 949.296L697.485 929.671L679.679 909.952L688.006 884.793L696.428 859.665L721.863 854.107C735.906 850.966 747.329 848.452 747.455 848.388C747.581 848.323 755.541 857.196 765.292 868.012ZM858.558 898.102L876.299 917.695L868.448 943.007L860.502 968.289L834.529 973.884L808.587 979.385L790.751 959.761L772.946 940.041L781.272 914.883L789.694 889.755L815.13 884.196C829.172 881.056 840.596 878.542 840.722 878.477C840.848 878.413 848.808 887.286 858.558 898.102ZM951.824 928.191L969.565 947.785L961.714 973.097L953.768 998.378L927.796 1003.97L901.854 1009.47L884.018 989.85L866.212 970.131L874.349 944.911L882.58 919.722L908.206 914.224C922.343 911.115 933.862 908.631 933.988 908.567C934.114 908.502 942.074 917.375 951.824 928.191ZM1045.09 958.28L1062.83 977.874L1054.98 1003.19L1047.03 1028.47L1021.06 1034.06L995.12 1039.56L977.284 1019.94L959.479 1000.22L967.615 975L975.847 949.811L1001.47 944.313C1015.61 941.204 1027.13 938.721 1027.25 938.656C1027.38 938.592 1035.34 947.464 1045.09 958.28ZM1138.36 988.37L1156.1 1007.96L1148.25 1033.28L1140.3 1058.56L1114.33 1064.15L1088.39 1069.65L1070.55 1050.03L1052.74 1030.31L1060.88 1005.09L1069.11 979.9L1094.74 974.403C1108.88 971.293 1120.4 968.81 1120.52 968.746C1120.65 968.681 1128.61 977.554 1138.36 988.37ZM1231.62 1018.46L1249.36 1038.05L1241.48 1063.46L1233.54 1088.74L1207.66 1094.37L1181.72 1099.87L1163.82 1080.12L1145.98 1060.49L1154.15 1035.18L1162.38 1009.99L1188.01 1004.49C1202.14 1001.38 1213.66 998.899 1213.79 998.835C1213.91 998.771 1221.87 1007.64 1231.62 1018.46ZM320.195 813.94L337.711 833.251L329.575 858.471L321.439 883.691L295.402 889.161L269.429 894.757L251.623 875.037L233.882 855.444L242.019 830.224L250.155 805.004L275.907 799.442C290.014 796.428 301.818 794.036 302.168 794.254C302.423 794.442 310.604 803.281 320.195 813.94ZM413.461 844.029L430.978 863.341L422.841 888.561L414.705 913.781L388.763 919.281L362.821 924.782L344.985 905.158L327.244 885.564L335.285 860.313L343.422 835.093L369.173 829.531C383.28 826.517 395.084 824.126 395.434 824.344C395.689 824.531 403.871 833.37 413.461 844.029ZM506.727 874.119L524.244 893.43L516.108 918.65L507.971 943.87L482.03 949.371L456.088 954.871L438.251 935.247L420.51 915.653L428.552 890.403L436.688 865.183L462.44 859.621C476.547 856.606 488.351 854.215 488.701 854.433C488.956 854.621 497.137 863.459 506.727 874.119ZM599.994 904.208L617.511 923.519L609.374 948.739L601.238 973.959L575.296 979.46L549.385 984.865L531.518 965.336L513.777 945.743L521.818 920.492L529.955 895.272L555.706 889.71C569.813 886.696 581.617 884.305 581.967 884.523C582.222 884.71 590.403 893.549 599.994 904.208ZM693.26 934.298L710.777 953.609L702.641 978.829L694.504 1004.05L668.562 1009.55L642.651 1014.95L624.784 995.426L606.948 975.802L615.085 950.582L623.221 925.362L648.973 919.8C663.079 916.785 674.884 914.394 675.234 914.612C675.489 914.799 683.67 923.638 693.26 934.298ZM786.527 964.387L804.044 983.698L795.907 1008.92L787.771 1034.14L761.829 1039.64L735.918 1045.04L718.051 1025.52L700.215 1005.89L708.351 980.671L716.487 955.451L742.239 949.889C756.346 946.875 768.15 944.484 768.5 944.702C768.755 944.889 776.936 953.728 786.527 964.387ZM879.793 994.477L897.31 1013.79L889.174 1039.01L880.942 1064.2L855.095 1069.73L829.184 1075.13L811.317 1055.6L793.481 1035.98L801.617 1010.76L809.754 985.54L835.505 979.978C849.612 976.964 861.417 974.573 861.767 974.791C862.021 974.978 870.203 983.817 879.793 994.477ZM973.06 1024.57L990.576 1043.88L982.44 1069.1L974.208 1094.29L948.362 1099.82L922.42 1105.32L904.584 1085.69L886.747 1066.07L894.884 1040.85L903.02 1015.63L928.772 1010.07C942.879 1007.05 954.683 1004.66 954.938 1004.85C955.288 1005.07 963.374 1013.88 973.06 1024.57ZM1066.33 1054.66L1083.84 1073.97L1075.71 1099.19L1067.47 1124.38L1041.63 1129.91L1015.69 1135.41L997.85 1115.78L980.014 1096.16L988.15 1070.94L996.287 1045.72L1022.04 1040.16C1036.15 1037.14 1047.95 1034.75 1048.2 1034.94C1048.55 1035.16 1056.64 1043.97 1066.33 1054.66ZM1159.59 1084.74L1177.11 1104.06L1168.97 1129.28L1160.84 1154.5L1134.99 1160.03L1109.02 1165.62L1091.21 1145.9L1073.28 1126.25L1081.42 1101.03L1089.55 1075.81L1115.3 1070.25C1129.41 1067.23 1141.22 1064.84 1141.47 1065.03C1141.82 1065.25 1149.91 1074.05 1159.59 1084.74ZM340.632 909.532L358.277 929.095L349.951 954.254L341.529 979.381L315.777 984.944L290.026 990.506L272.285 970.912L254.513 951.414L262.554 926.163L270.721 900.848L296.442 895.381C310.58 892.271 322.32 889.754 322.51 889.816C322.7 889.877 330.882 898.716 340.632 909.532ZM433.898 939.622L451.544 959.184L443.217 984.343L434.795 1009.47L409.928 1014.9C396.263 1017.84 384.394 1020.11 383.633 1019.86C382.902 1019.52 374.564 1010.84 365.198 1000.47L348.191 981.531L356.042 956.219L363.957 931.032L389.613 925.44C403.846 922.361 415.586 919.844 415.776 919.905C415.967 919.967 424.148 928.806 433.898 939.622ZM527.164 969.711L544.81 989.274L536.484 1014.43L528.062 1039.56L503.194 1044.99C489.529 1047.93 477.661 1050.2 476.899 1049.95C476.169 1049.61 467.831 1040.93 458.464 1030.56L441.457 1011.62L449.308 986.308L457.223 961.122L482.88 955.529C497.113 952.45 508.852 949.933 509.043 949.995C509.233 950.056 517.414 958.895 527.164 969.711ZM620.336 999.77L638.077 1019.36L629.75 1044.52L621.328 1069.65L596.461 1075.08C582.796 1078.02 570.958 1080.19 570.196 1079.95C569.435 1079.7 561.097 1071.02 551.731 1060.65L534.723 1041.71L542.574 1016.4L550.52 991.116L576.177 985.523C590.379 982.54 602.088 980.118 602.214 980.053C602.404 980.115 610.586 988.954 620.336 999.77ZM713.602 1029.86L731.343 1049.45L723.016 1074.61L714.594 1099.74L689.727 1105.17C676.062 1108.11 664.224 1110.28 663.463 1110.04C662.701 1109.79 654.364 1101.11 644.997 1090.74L627.99 1071.8L635.841 1046.49L643.787 1021.21L669.443 1015.61C683.645 1012.63 695.355 1010.21 695.48 1010.14C695.671 1010.2 703.852 1019.04 713.602 1029.86ZM806.869 1059.95L824.61 1079.54L816.283 1104.7L807.861 1129.83L782.993 1135.26C769.329 1138.2 757.491 1140.37 756.729 1140.13C755.968 1139.88 747.63 1131.2 738.264 1120.82L721.256 1101.89L729.107 1076.58L737.053 1051.29L762.71 1045.7C776.912 1042.72 788.621 1040.3 788.747 1040.23C788.937 1040.29 797.118 1049.13 806.869 1059.95ZM900.135 1090.04L917.845 1109.73L909.549 1134.79L901.127 1159.92L876.26 1165.35C862.595 1168.29 850.757 1170.46 849.996 1170.22C849.234 1169.97 840.896 1161.29 831.53 1150.91L814.523 1131.98L822.374 1106.67L830.32 1081.38L855.976 1075.79C870.178 1072.81 881.918 1070.29 882.108 1070.35C882.299 1070.41 890.354 1079.32 900.135 1090.04ZM993.401 1120.13L1011.11 1139.82L1002.82 1164.88L994.394 1190.01L969.526 1195.43C955.862 1198.38 944.023 1200.55 943.231 1200.4C942.47 1200.16 934.163 1191.38 924.796 1181L907.789 1162.07L915.64 1136.76L923.586 1111.47L949.243 1105.88C963.445 1102.9 975.185 1100.38 975.375 1100.44C975.565 1100.5 983.621 1109.41 993.401 1120.13ZM1086.67 1150.22L1104.41 1169.81L1096.24 1195.13L1088.01 1220.31L1062.19 1225.75L1036.35 1231.28L1018.7 1211.72L1001.06 1192.16L1008.91 1166.84L1016.85 1141.56L1042.51 1135.97C1056.71 1132.99 1068.45 1130.47 1068.64 1130.53C1068.83 1130.59 1076.92 1139.4 1086.67 1150.22ZM361.965 1006.25L378.874 1024.84L370.547 1050L362.125 1075.13L337.037 1080.59C323.151 1083.57 311.282 1085.84 310.742 1085.56C310.076 1085.34 301.833 1076.69 292.497 1066.22L275.459 1047.38L283.341 1021.97L291.318 996.597L316.944 991.099C331.618 987.953 343.174 986.007 343.908 986.664C344.577 987.195 352.758 996.034 361.965 1006.25ZM455.231 1036.34L472.14 1054.93L463.814 1080.09L455.392 1105.22L431.092 1110.51C417.744 1113.46 406.065 1115.79 405.117 1115.79C404.294 1115.74 395.735 1107.09 386.114 1096.53L368.787 1077.28L376.638 1051.97L384.584 1026.69L410.21 1021.19C424.885 1018.04 436.44 1016.1 437.174 1016.75C437.843 1017.28 446.025 1026.12 455.231 1036.34ZM548.498 1066.43L565.407 1085.02L557.08 1110.18L548.658 1135.31L523.475 1140.74C509.589 1143.72 497.91 1146.05 497.434 1145.89C496.959 1145.74 488.842 1137.03 479.316 1126.49L462.054 1107.37L469.905 1082.06L477.851 1056.78L503.476 1051.28C518.151 1048.13 529.707 1046.19 530.441 1046.84C531.11 1047.37 539.291 1056.21 548.498 1066.43ZM641.764 1096.52L658.673 1115.11L650.347 1140.27L641.925 1165.4L616.741 1170.83C602.855 1173.81 591.177 1176.14 590.701 1175.98C590.225 1175.83 582.108 1167.12 572.582 1156.58L555.32 1137.46L563.171 1112.15L571.117 1086.86L596.743 1081.37C611.418 1078.22 622.973 1076.27 623.707 1076.93C624.376 1077.46 632.558 1086.3 641.764 1096.52ZM735.031 1126.61L751.94 1145.2L743.613 1170.36L735.191 1195.49L710.892 1200.78C697.543 1203.73 685.865 1206.05 684.916 1206.06C684.093 1206.01 675.534 1197.36 665.913 1186.8L648.587 1167.55L656.437 1142.24L664.384 1116.95L690.009 1111.46C704.684 1108.31 716.24 1106.36 716.973 1107.02C717.643 1107.55 725.824 1116.39 735.031 1126.61ZM828.297 1156.7L845.206 1175.29L836.879 1200.45L828.458 1225.58L803.274 1231.01C789.388 1233.99 777.71 1236.31 777.234 1236.16C776.758 1236.01 768.641 1227.29 759.115 1216.76L741.853 1197.64L749.704 1172.33L757.65 1147.04L783.276 1141.55C797.951 1138.4 809.506 1136.45 810.24 1137.11C810.909 1137.64 819.09 1146.48 828.297 1156.7ZM921.564 1186.79L938.473 1205.38L930.146 1230.54L921.724 1255.67L896.414 1261.16C882.433 1264.11 870.436 1266.12 869.736 1265.69C868.971 1265.13 860.854 1256.41 851.743 1246.22L835.119 1227.73L842.97 1202.41L850.916 1177.13L876.542 1171.64C891.217 1168.49 902.773 1166.54 903.506 1167.2C904.176 1167.73 912.357 1176.57 921.564 1186.79ZM1014.83 1216.88L1031.74 1235.47L1023.38 1260.72L1014.93 1285.95L990.092 1291.28C976.397 1294.32 964.654 1296.52 963.988 1296.31C963.386 1296.22 955.079 1287.44 945.553 1276.91L928.386 1257.82L936.237 1232.5L944.183 1207.22L969.809 1201.72C984.483 1198.58 996.039 1196.63 996.773 1197.29C997.442 1197.82 1005.62 1206.66 1014.83 1216.88ZM381.794 1101.12L399.056 1120.25L390.858 1145.66L382.661 1171.07L357.477 1176.5C343.591 1179.48 331.818 1181.78 331.437 1181.65C330.961 1181.5 322.844 1172.79 313.318 1162.25L296.087 1143.03L304.254 1117.72L312.452 1092.31L337.319 1086.88C351.015 1083.84 362.693 1081.51 363.359 1081.73C363.961 1081.82 372.268 1090.59 381.794 1101.12ZM475.061 1131.21L492.323 1150.34L484.125 1175.75L475.927 1201.16L450.743 1206.59C436.858 1209.57 425.084 1211.87 424.703 1211.74C424.227 1211.59 416.111 1202.88 406.585 1192.34L389.353 1173.12L397.52 1147.81L405.718 1122.4L430.586 1116.97C444.281 1113.93 455.96 1111.6 456.626 1111.82C457.227 1111.91 465.535 1120.68 475.061 1131.21ZM568.327 1161.3L585.589 1180.43L577.391 1205.84L569.224 1231.15L544.01 1236.68C530.124 1239.66 518.446 1241.99 517.97 1241.83C517.494 1241.68 509.377 1232.97 499.851 1222.43L482.62 1203.21L490.787 1177.9L498.985 1152.49L523.852 1147.06C537.548 1144.02 549.226 1141.69 549.892 1141.91C550.494 1142 558.801 1150.77 568.327 1161.3ZM661.593 1191.39L678.856 1210.52L670.658 1235.93L662.491 1261.24L637.276 1266.77C623.39 1269.75 611.712 1272.07 611.236 1271.92C610.76 1271.77 602.643 1263.05 593.117 1252.52L575.886 1233.3L584.053 1207.99L592.251 1182.58L617.118 1177.15C630.814 1174.11 642.492 1171.78 643.159 1172C643.76 1172.09 652.068 1180.86 661.593 1191.39ZM754.86 1221.48L772.122 1240.61L763.924 1266.02L755.757 1291.33L730.543 1296.86C716.657 1299.84 704.978 1302.16 704.503 1302.01C704.027 1301.86 695.91 1293.14 686.384 1282.61L669.152 1263.39L677.32 1238.08L685.517 1212.67L710.385 1207.24C724.08 1204.2 735.759 1201.87 736.425 1202.09C737.027 1202.17 745.334 1210.95 754.86 1221.48ZM848.126 1251.57L865.388 1270.7L857.191 1296.11L849.023 1321.42L823.809 1326.95C809.923 1329.93 798.245 1332.25 797.769 1332.1C797.388 1331.98 789.176 1323.23 779.65 1312.7L762.388 1293.58L770.586 1268.17L778.784 1242.76L803.651 1237.33C817.347 1234.29 829.025 1231.96 829.691 1232.17C830.293 1232.26 838.6 1241.04 848.126 1251.57ZM941.393 1281.66L958.655 1300.79L950.457 1326.2L942.29 1351.51L917.076 1357.04C903.19 1360.02 891.511 1362.34 891.035 1362.19C890.655 1362.07 882.443 1353.32 872.917 1342.79L855.655 1323.67L863.852 1298.26L872.05 1272.84L896.918 1267.42C910.613 1264.38 922.292 1262.05 922.958 1262.26C923.56 1262.35 931.867 1271.13 941.393 1281.66Z" fill="#FFFF00"/>
</svg>
