<svg width="128" height="128" viewBox="0 0 128 128" fill="none" xmlns="http://www.w3.org/2000/svg">
<path d="M92.8 48C90.6667 41.6 86.4 37.3333 80 34.6667V26.6667H74.6667V34.1333H72.5333C66.6667 34.1333 61.8667 36.2667 57.6 40.5333L55.4667 42.6667L48 40C46.4 39.4667 44.8 38.9333 42.6667 38.9333C39.4667 38.9333 36.2667 40 33.6 42.1333C30.4 44.2667 28.8 46.9333 27.7333 49.6C26.6667 53.3333 26.6667 56.5333 27.7333 60.2667C29.3333 64 30.9334 66.6667 33.6 68.2667C31.4667 76.2667 33.0667 83.2 38.9334 89.0667C43.2 93.3333 48 95.4667 53.8667 95.4667C56.5334 95.4667 58.1333 95.4667 59.7333 94.9333C62.9333 99.2 67.2 101.867 72.5333 101.867C74.1333 101.867 76.2667 101.867 77.8667 101.333C81.0667 100.267 83.2 98.1333 85.3333 95.4667C87.4667 92.2667 88.5333 89.6 88.5333 86.4C88.5333 84.2667 88.5333 82.6667 88 81.0667L85.3333 72.5333L88.5333 70.4C92.8 66.1333 94.9333 60.2667 94.4 53.8667H101.333V48H92.8ZM41.0667 60.2667C37.8667 58.6667 36.8 56.5333 37.8667 53.3333C38.9333 50.1333 41.0667 49.0667 44.2667 50.1333L61.3333 56.5333C52.8 60.8 46.4 61.8667 41.0667 60.2667ZM74.6667 90.1333C71.4667 91.2 69.3333 90.1333 67.7333 86.9333C66.1333 81.6 67.2 75.2 71.4667 66.6667L77.8667 83.2C78.9333 86.9333 77.8667 89.0667 74.6667 90.1333ZM81.0667 61.8667L77.8667 53.3333V52.8L76.2667 51.2H75.7333L67.2 48C69.3334 46.4 71.4667 45.3333 74.1333 45.3333C76.8 45.3333 79.4667 46.4 81.6 48.5333C83.7333 50.6667 84.8 52.8 84.8 55.4667C83.7333 57.0667 82.6667 59.7333 81.0667 61.8667Z" fill="#FFFF00"/>
</svg>
